<svg width="226.350830" height="191.540039" viewBox="0 0 226.351 191.54" fill="none" xmlns="http://www.w3.org/2000/svg" xmlns:xlink="http://www.w3.org/1999/xlink">
	<desc>
			Created with Pixso.
	</desc>
	<defs>
		<clipPath id="clip1_5727">
			<rect id="coffee-first-sticker" width="192.000717" height="129.103928" transform="translate(48.282227 0.000000) rotate(21.961243)" fill="white" fill-opacity="0"/>
		</clipPath>
	</defs>
	<rect id="coffee-first-sticker" width="192.000717" height="129.103928" transform="translate(48.282227 0.000000) rotate(21.961243)" fill="#FFFFFF" fill-opacity="0"/>
	<g clip-path="url(#clip1_5727)">
		<mask id="mask1_5730" mask-type="alpha" maskUnits="userSpaceOnUse" x="0.019287" y="0.060303" width="226.111206" height="191.385254">
			<path id="Vector" d="M48.27 0.06L226.13 71.77L177.87 191.44L0.01 119.72L48.27 0.06Z" fill="#FFFFFF" fill-opacity="1.000000" fill-rule="nonzero"/>
		</mask>
		<g mask="url(#mask1_5730)">
			<path id="Vector" d="M210.01 99.06C209.98 99.05 209.96 99.04 209.93 99.01C209.88 98.96 209.82 98.91 209.78 98.85C209.9 98.87 210.01 98.91 210.03 98.97C210.03 99 210.02 99.03 210.01 99.06ZM220.78 84.36L220.78 84.17L220.76 83.98C220.7 83.43 220.31 81.6 217.95 81.08C217.56 80.99 217.17 80.91 216.78 80.83L216.56 80.79C215.64 80.6 211.48 79.83 210.21 79.64C209.87 79.59 209.24 79.48 208.5 79.35C206.36 78.97 204.78 78.71 204.05 78.66C203.69 78.64 203.29 78.59 202.87 78.53C202.61 78.5 202.35 78.46 202.1 78.43C201.18 78.33 200.38 78.51 199.58 79.01C199.34 79.16 199.11 79.34 198.9 79.53C198.75 79.24 198.57 78.96 198.38 78.7C197.53 77.59 195.95 76.95 195.89 76.92C195.27 76.68 193.78 76.23 193.17 76.14C192.62 76.05 191.3 75.94 190.32 76.11C189.56 76.25 187.54 77 186.64 77.75C186.48 77.89 186.33 78.03 186.19 78.17C186.05 77.82 185.89 77.49 185.7 77.16C184.84 75.75 183.5 75.12 182.57 74.78C182.29 74.67 181.86 74.52 181.36 74.45C181.23 74.43 180.74 74.34 180.57 74.3C180.48 74.28 180.35 74.25 179.97 74.18C179.68 73.52 179.38 72.87 179.06 72.22L179.8 71.58L178.99 69.71C176.68 64.32 173.05 59.94 169.54 55.91C159.5 44.4 146.12 37.54 129.8 35.53C121.93 34.57 111.03 36.19 100.62 39.88C95.67 41.63 84.02 46.34 80.57 52.87C77.47 55.67 74.65 58.77 72.15 62.13C71.35 61.76 70.09 61.56 68.56 62.63L68.51 62.67C68.23 62.86 68 63 67.8 63.11C67.32 63.36 66.96 63.52 66.66 63.61L66.58 63.45C65.53 61.26 64.29 59.37 62.91 57.83C62.27 57.11 61.6 56.42 60.92 55.75C60.2 55.04 59.38 54.54 58.71 54.14L58.48 54.01C57.61 53.47 56.75 53.19 55.99 52.93C55.76 52.86 55.53 52.78 55.3 52.7C54.47 52.38 53.59 52.15 52.54 51.95C50.06 51.48 47.64 51.64 45.38 51.88C44.03 52.02 42.81 52.17 41.53 52.49C40.32 52.8 39.14 53.19 37.98 53.68C35.59 54.68 33.46 56.03 31.49 57.32C30.99 57.65 30.41 58.04 29.85 58.51C29.41 58.88 29.03 59.26 28.7 59.6C28.59 59.7 28.49 59.81 28.38 59.91C28.15 60.15 27.9 60.37 27.66 60.59C27.39 60.84 27.11 61.09 26.85 61.35C25.54 62.63 24.07 64.46 22.5 66.78C21.5 68.26 20.8 69.57 20.06 70.95C19.86 71.32 19.65 71.7 19.44 72.1C18.29 74.19 17.39 76.4 16.75 78.7C16.42 79.89 16.13 81.14 15.9 82.42C15.86 82.62 15.77 83.08 15.66 83.59C15.44 84.64 15.29 85.36 15.23 85.73C15.03 87.04 15.01 88.29 15.01 89.56C15.02 90.88 15.06 91.96 15.16 92.95C15.43 95.7 16.15 98.22 17.29 100.44C17.84 101.51 18.4 102.44 18.99 103.28C19.72 104.34 20.46 105.36 21.45 106.29C23.36 108.08 25.45 109.22 27.24 110.11C29.26 111.1 31.48 111.75 34.05 112.11C34.65 112.19 35.25 112.27 35.85 112.33C36.18 112.36 36.48 112.36 38.31 112.21C38.31 112.22 38.31 112.22 38.31 112.23L38.28 112.28C38.11 112.61 37.76 113.3 37.77 114.19C37.79 115.66 38.69 116.93 40.01 117.35C40.12 117.39 40.26 117.43 40.43 117.46C41.26 117.6 42.7 117.52 44.01 115.76L44.48 115.11C45.11 114.28 46.16 112.86 46.67 112.17C47.24 111.4 47.72 110.65 48.19 109.91C48.38 109.62 48.57 109.32 48.77 109.02C48.93 108.77 49.76 107.68 50.16 107.15L50.45 106.77C50.66 107.44 50.92 108.1 51.24 108.73C51.61 109.47 52.2 110.56 53.02 111.53C53.91 112.58 54.91 113.35 55.68 113.9C56.69 114.63 57.56 115.16 58.41 115.58C58.83 115.79 59.74 116.19 60.46 116.4L60.91 116.53C61.36 116.66 61.81 116.8 62.26 116.92C63.17 120.09 64.34 123.19 65.74 126.17C67.68 131.94 71.09 137.43 76.46 143.45C86 154.15 97.59 160.73 111 163.09C113.79 163.58 116.66 163.89 119.6 164.01C136.63 164.73 151.77 159.27 164.61 147.79C167.17 145.5 170.08 142.9 171.45 138.76L171.45 138.74C172.15 137.87 172.83 136.98 173.48 136.08C176.07 136.51 179.31 137.04 180.29 137.16C180.93 137.23 181.55 137.31 182.13 137.43C182.45 137.5 182.76 137.55 183.07 137.6C183.47 137.67 183.84 137.73 184.15 137.81C185.14 138.08 186.15 138.31 187.17 138.5C188.07 138.68 188.82 138.55 189.4 138.33C189.57 138.52 189.76 138.69 189.96 138.85C190.53 139.27 191.2 139.56 191.9 139.67C193.52 139.96 195.29 139.43 196.4 138.17C197.42 137.01 197.92 135.55 197.74 134.25C197.58 133.13 196.96 132.17 195.98 131.55C195.53 131.26 195.02 131.06 194.49 130.94C195.77 128.75 196.46 127.31 196.54 126.67C196.7 125.32 196 124.08 194.84 123.53C193.47 122.73 191.55 122.8 190.08 124.7C189.38 125.44 185.69 127.96 184.61 128.48C183.97 128.8 183.31 129.08 182.64 129.33C182.16 129.5 181.79 129.61 181.5 129.6C181.01 129.58 180.46 129.49 179.8 129.38C179.55 129.34 179.24 129.29 178.92 129.24L178.96 129.15C179.06 128.88 179.24 128.55 179.43 128.21C179.51 128.05 179.6 127.9 179.68 127.74C179.89 127.35 181.29 125.04 182.22 123.52L182.86 122.47C182.88 122.92 182.99 123.36 183.19 123.76C183.4 124.19 183.7 124.56 184.06 124.86C184.43 125.16 184.86 125.38 185.33 125.49C186.31 125.73 187.36 125.51 188.21 124.88C189.14 124.19 189.68 123.26 190.08 122.58C190.15 122.46 190.22 122.34 190.29 122.23C190.57 121.79 190.85 121.35 191.13 120.9C191.32 120.62 191.5 120.34 191.68 120.05C191.91 119.69 192.17 119.32 192.44 118.94C193.01 118.11 193.66 117.18 194.17 116.12L194.19 116.08C194.46 115.51 195.18 114.01 194.39 112.48C194.19 112.09 193.91 111.75 193.57 111.47C193.23 111.2 192.84 111 192.41 110.89C191.71 110.71 191.09 110.8 190.58 110.97C190.8 110.68 190.98 110.44 191.11 110.26C191.32 109.98 191.53 109.69 191.73 109.41C191.95 109.09 192.17 108.78 192.41 108.48C192.58 108.26 192.75 108.03 192.92 107.79C193.19 107.42 193.45 107.06 193.71 106.78C193.8 106.67 193.9 106.56 194 106.46L194.18 106.49C194.87 106.6 195.56 106.71 196.24 106.83C196.92 106.95 197.59 107.12 198.25 107.33C198.7 107.47 198.94 107.59 199.07 107.66C199.07 107.78 199.07 107.92 199.07 108.03L199.07 108.08C199.07 108.39 199.05 108.62 199 108.77C198.93 108.99 198.86 109.2 198.78 109.42C198.58 110.03 198.36 110.65 198.19 111.33L198.14 111.46C197.81 112.4 197.19 114.15 198.3 115.67C198.92 116.51 199.89 116.98 200.98 116.94C202.74 116.88 203.7 115.53 204.06 115.02C204.08 115 204.1 114.97 204.12 114.94C204.64 114.34 204.99 113.71 205.26 113.18C205.51 112.7 205.87 112.19 206.26 111.65C206.38 111.48 206.5 111.32 206.61 111.16C207.02 110.58 207.38 109.99 207.73 109.42L207.93 109.1C208.42 108.29 209.04 107.28 209.38 106.07C209.67 105.02 209.63 104.17 209.43 103.5C209.57 103.5 209.71 103.51 209.85 103.5C212.7 103.28 215.02 101 215.12 98.28C215.14 97.61 215.01 96.95 214.74 96.34C214.46 95.73 214.06 95.19 213.55 94.76C213 94.3 212.37 93.97 211.68 93.79C210.99 93.61 210.27 93.59 209.57 93.72L209.57 93.72C209.47 93.74 209.37 93.77 209.26 93.8C209.52 93.4 209.77 93.01 210.02 92.64L210.22 92.35C210.32 92.21 210.41 92.07 210.51 91.93C210.7 91.67 210.88 91.4 211.06 91.14C211.32 90.76 211.56 90.41 211.8 90.08C212.25 89.48 212.64 88.89 213.02 88.31C213.15 88.11 213.28 87.91 213.41 87.72C213.5 87.95 213.61 88.17 213.75 88.38C213.98 88.73 214.28 89.03 214.63 89.26C214.99 89.48 215.38 89.64 215.79 89.71C216.36 89.81 218.22 89.94 219.32 87.67L219.33 87.65C219.37 87.58 219.44 87.48 219.51 87.36C220.28 86.13 220.75 85.33 220.78 84.36L220.78 84.36Z" fill="#FFFFFE" fill-opacity="1.000000" fill-rule="evenodd"/>
		</g>
		<g mask="url(#mask1_5730)">
			<path id="Vector" d="M181.62 110.35C175.85 142.98 144.76 164.79 112.17 159.05C79.58 153.32 57.83 122.22 63.59 89.58C69.36 56.95 100.45 35.14 133.04 40.88C165.63 46.61 187.38 77.72 181.62 110.35L181.62 110.35Z" fill="#FFFFFF" fill-opacity="1.000000" fill-rule="evenodd"/>
		</g>
		<path id="Vector" d="M133 41.2C130.1 40.91 127.29 40.41 124.47 40.4C118.29 40.37 119.04 39.75 120.05 45.72C120.07 45.85 120.22 45.96 120.39 46.2C124.91 45.81 130.32 48.01 133 41.2L133 41.2ZM116.74 40.39L102.53 44.32C103.69 45.77 104.48 46.82 105.33 47.8C105.66 48.17 106.2 48.7 106.55 48.64C110.3 47.9 114.03 47.06 117.92 46.22L116.74 40.39ZM132.14 46.28C145.04 47.98 156.49 52.53 166.63 60.39C165.6 58.9 164.51 57.51 163.26 56.29C156.83 50 149.18 45.81 140.64 43.14C136.38 41.81 135.23 42.17 132.14 46.28ZM82.59 56.43C84.28 47.62 112.83 36.76 129.61 38.8C144.58 40.61 157.52 46.69 167.54 58.24C171.02 62.25 174.41 66.41 176.51 71.35L175.77 72C175.11 71.48 174.36 71.05 173.81 70.43C162.85 58.29 149.25 51.12 133.1 48.82C132.34 48.71 130.97 48.85 130.83 49.23C130.51 50.08 130.49 51.31 130.91 52.08C131.59 53.34 132.6 54.5 133.68 55.46C137.6 58.97 141.63 62.36 145.58 65.84C146.44 66.6 147.14 67.55 147.91 68.41L147.38 69.1C146.77 68.8 146.08 68.61 145.58 68.18C140.98 64.27 136.4 60.34 131.86 56.36C129.6 54.39 127.61 52.21 128.31 48.5C125.95 48.54 123.87 48.45 121.83 48.7C121.4 48.75 120.74 50.04 120.81 50.7C121.18 54.57 121.75 58.42 122.21 62.28C122.3 63.06 122.2 63.86 122.19 64.66L121.38 64.87C121.06 64.04 120.6 63.24 120.45 62.38C119.8 58.63 119.19 54.87 118.67 51.09C118.45 49.48 117.87 48.68 116.12 49.06C114.84 49.33 113.5 49.35 112.22 49.61C110.7 49.91 108.8 49.92 107.84 50.87C107.02 51.68 107.29 53.62 107.08 55.06C106.76 57.21 106.28 59.25 103.21 60.45C104.34 57.33 105.85 54.82 104.46 51.59L90.39 58.02L89.78 57.18C90.44 56.54 91.01 55.69 91.8 55.28C95.03 53.58 98.33 52.02 101.6 50.41C102.22 50.11 102.84 49.83 103.45 49.54C101.57 45.56 100.54 44.98 97.12 47.04C93.09 49.47 89.31 52.36 85.46 55.1C84.62 55.7 83.93 56.51 83.17 57.22L82.59 56.43L82.59 56.43ZM130.2 121.43L135.4 158.42C149.02 155.31 159.85 148.32 168.96 138.25C167.84 141.63 165.37 143.88 162.92 146.06C150.7 157 136.36 162.25 120 161.56C103.59 160.88 89.87 154.25 78.94 141.99C73.81 136.24 69.52 129.95 67.81 122.11C74.94 136.44 84.83 147.94 99.87 154.45C93.3 141.58 89.11 135.66 88.24 121.17L89.28 120.82C89.57 121.59 90.04 122.34 90.12 123.12C91.34 136.06 94.82 140.6 100.94 151.95C102.63 155.09 104.86 156.88 108.46 157.67C115.92 159.34 123.36 160.1 130.98 159.2C133.03 158.96 133.7 158.33 133.39 156.15C131.9 145.82 130.57 135.47 129.21 125.12C129.05 123.95 129.06 122.76 128.99 121.58L130.2 121.43Z" fill="#000000" fill-opacity="1.000000" fill-rule="evenodd"/>
		<path id="Vector" d="M62.49 65.6C63 66.67 63.48 67.77 63.79 68.91C64.05 69.85 64.24 70.82 64.19 71.79C64.18 72.06 64.15 73.1 64.11 73.39C64.07 73.78 64 74.18 63.93 74.57C63.84 74.99 63.76 75.42 63.69 75.85C63.64 76.14 63.56 76.57 63.96 76.65C64.36 76.74 64.54 76.21 64.7 75.93C64.97 75.47 65.3 75.1 65.64 74.69C65.94 74.32 66.24 73.94 66.54 73.58C67.27 72.67 67.95 71.76 68.65 70.83C69.23 70.06 71.05 67.51 71.23 66.97C71.37 66.58 71.87 66.07 71.45 65.69C71.11 65.38 70.72 65.7 70.43 65.9C70.11 66.12 69.78 66.32 69.43 66.51C68.47 67.01 67.48 67.42 66.38 67.38C65.91 67.37 65.12 67.18 64.91 66.72C64.74 66.33 64.55 65.96 64.37 65.57C63.51 63.8 62.45 62.08 61.11 60.61C60.5 59.94 59.88 59.29 59.23 58.65C58.67 58.11 57.95 57.7 57.29 57.3C56.44 56.79 55.48 56.56 54.57 56.22C53.8 55.93 53.04 55.74 52.25 55.59C50.14 55.19 47.99 55.32 45.88 55.54C44.71 55.66 43.54 55.78 42.4 56.07C41.32 56.34 40.26 56.68 39.24 57.11C37.08 58.01 35.12 59.23 33.17 60.5C32.7 60.8 32.23 61.12 31.79 61.48C31.33 61.86 30.93 62.3 30.5 62.72C30 63.22 29.45 63.67 28.95 64.17C27.53 65.54 26.06 67.52 24.96 69.14C23.78 70.88 23.05 72.38 22.04 74.22C20.99 76.12 20.17 78.13 19.59 80.22C19.28 81.36 19.02 82.52 18.81 83.68C18.71 84.2 18.25 86.35 18.16 86.92C17.99 88.04 17.98 89.17 17.98 90.3C17.99 91.34 18.02 92.38 18.12 93.42C18.35 95.68 18.93 97.88 19.99 99.9C20.43 100.78 20.94 101.62 21.5 102.43C22.14 103.33 22.79 104.23 23.6 104.99C25.13 106.42 26.88 107.43 28.75 108.35C30.66 109.29 32.64 109.81 34.74 110.11C35.31 110.19 35.88 110.26 36.46 110.32C36.7 110.35 38.61 110.19 38.76 110.18C39.06 110.16 39.36 110.09 39.66 110.08C40.23 110.07 40.78 110.27 41.2 110.66C41.43 110.87 41.69 111.68 41.68 111.94C41.66 112.28 41.67 112.59 41.56 113.2C41.48 113.67 41.26 114.01 41.15 114.23C41.05 114.44 40.9 114.69 40.9 114.92C40.91 115.36 41.31 115.96 42.11 114.87C42.29 114.63 44.07 112.26 44.78 111.31C45.51 110.32 46.11 109.32 46.78 108.29C47.11 107.8 48.54 105.95 48.91 105.45C49.16 105.11 49.68 104.31 49.82 103.88C49.95 103.47 49.32 103.17 48.84 103.31C48.4 103.43 47.98 103.9 47.63 104.17C47.16 104.52 46.66 104.84 46.16 105.15C45.19 105.76 44.17 106.43 43.07 106.78C41.94 107.15 40.79 107.39 39.62 107.52C38.42 107.64 37.32 107.75 36.12 107.72C34.95 107.69 33.96 107.69 32.82 107.4C32.56 107.34 31.96 107.1 31.74 106.95C31.53 106.79 31.33 106.55 31.16 106.34C30.81 105.93 30.53 105.47 30.27 105C29.84 104.22 29.44 103.42 29.09 102.6C28.25 100.58 27.77 98.28 27.7 96.1C27.63 93.79 28.12 91.49 28.57 89.24C29 87.09 29.61 85.01 30.45 82.98C31.26 81.04 32.08 79.37 33.26 77.64C34.01 76.52 34.9 75.35 35.63 74.23C36.82 72.4 38.37 70.62 39.76 68.93C41.01 67.4 42.32 65.94 43.76 64.57C45.36 63.06 46.98 61.57 48.8 60.32C49.7 59.7 50.62 59.09 51.65 58.71C52.11 58.54 52.59 58.36 53.09 58.31C53.64 58.26 54.19 58.29 54.74 58.37C55.29 58.45 55.89 58.54 56.4 58.77C56.89 58.99 57.37 59.23 57.83 59.5C58.56 59.93 59.2 60.71 59.76 61.34C60.36 62.01 60.83 62.77 61.3 63.54C61.71 64.22 62.12 64.9 62.49 65.6Z" fill="#000000" fill-opacity="1.000000" fill-rule="evenodd"/>
		<path id="Vector" d="M79.93 95.3C79.58 96.48 79.16 97.61 78.61 98.71C77.9 100.12 77.15 101.53 76.29 102.85C75.79 103.6 75.39 104.42 74.9 105.18C74.42 105.91 73.87 106.59 73.29 107.24C72.25 108.4 71.15 109.52 69.78 110.29C68.34 111.1 67.16 111.17 65.16 111.11C63.79 110.89 62.16 110.43 61.45 109.09C60.58 107.45 60.66 105.47 60.95 103.69C61.17 102.39 61.44 101.07 61.97 99.86C62.65 98.32 63.4 96.86 64.25 95.42C65.83 92.74 67.55 90.09 69.75 87.88C70.95 86.67 72.36 85.7 73.86 84.9C74.6 84.51 75.37 84.13 76.22 84.03C76.58 83.98 76.97 83.95 77.32 84.07C77.53 84.14 77.8 84.25 77.98 84.36C78.04 84.39 78.78 84.91 78.92 85.05C79.09 85.22 79.25 85.56 79.36 85.77C79.56 86.16 79.7 86.53 79.86 86.94C80.16 87.73 80.25 88.56 80.35 89.4C80.46 90.37 80.4 91.37 80.37 92.34C80.33 93.34 80.19 94.34 79.93 95.3ZM80.34 109.34C81.67 108.1 82.81 106.72 83.92 105.28C84.89 104.04 85.79 102.8 86.47 101.37C86.9 100.49 87.34 99.57 87.69 98.65C88.02 97.78 88.21 96.86 88.36 95.93C88.64 94.17 88.56 92.35 88.05 90.65C87.76 89.7 87.41 88.76 87.03 87.85C86.69 87.04 86.24 86.29 85.72 85.58C85.27 84.95 84.75 84.37 84.17 83.85C83.51 83.25 82.88 82.72 82.12 82.25C81.36 81.78 80.55 81.18 79.7 80.88C78.89 80.59 78.04 80.34 77.2 80.19C76.27 80.03 75.33 79.97 74.39 80.01C73.94 80.03 73.43 80.05 72.99 80.07C72.52 80.1 72.06 80.17 71.6 80.27C69.76 80.65 67.92 81.38 66.26 82.25C65.44 82.68 64.5 83.11 63.74 83.64C62.99 84.16 62.3 84.58 61.53 85.09C60.1 86.03 58.81 87.2 57.66 88.48C56.64 89.62 55.77 90.64 55.08 91.89C54.56 92.81 54.25 93.74 53.93 94.69C53.64 95.59 53.43 96.51 53.3 97.45C53.08 99.12 52.9 100.77 52.94 102.45C52.96 103.4 53.17 104.42 53.35 105.36C53.5 106.19 53.81 106.98 54.18 107.74C54.57 108.51 55.03 109.3 55.59 109.96C56.22 110.7 56.95 111.3 57.74 111.86C58.48 112.39 59.25 112.89 60.06 113.29C60.49 113.5 61.19 113.8 61.65 113.93C62.04 114.04 63.35 114.44 63.77 114.54C64.28 114.66 64.92 114.79 65.43 114.87C66.42 115.03 67.23 115.01 68.22 114.88C69.19 114.76 70.13 114.53 71.06 114.24C71.53 114.1 71.98 113.93 72.45 113.78C72.87 113.64 73.3 113.52 73.7 113.34C74.02 113.2 74.38 113.04 74.71 112.92C75.16 112.75 75.55 112.56 75.98 112.35C76.83 111.94 77.63 111.41 78.41 110.86C79.07 110.39 79.75 109.9 80.34 109.34ZM144.04 96.09C144.56 96.27 144.94 96.48 145.27 96.92C145.59 97.35 145.82 97.81 145.77 98.37C145.67 99.5 145.35 100.67 145.02 101.75C144.87 102.25 144.66 102.7 144.47 103.18C144.39 103.36 144.32 103.56 144.42 103.75C144.52 103.93 144.72 103.99 144.9 103.91C145.3 103.74 145.61 103.15 145.84 102.81C145.96 102.63 148 99.62 148.71 98.6C149.09 98.05 149.49 97.5 149.91 96.98C150.16 96.67 150.46 96.36 150.6 95.98C150.77 95.49 150.57 94.97 150.16 94.69C149.47 94.22 145.7 93.79 144.7 93.64C143.82 93.51 140.04 92.85 139.03 92.67C137.97 92.48 136.93 92.23 135.88 92.09C134.78 91.94 133.7 91.74 132.61 91.57C131.47 91.4 130.34 91.21 129.21 90.97C128.72 90.86 128.24 90.77 127.74 90.74C127.53 90.72 126.77 90.72 126.62 90.92C126.14 91.56 127.58 91.73 127.71 92.15C127.8 92.45 127.51 92.99 127.4 93.27C127.21 93.71 127.05 94.16 126.8 94.58C126.32 95.41 125.89 96.28 125.37 97.09C124.96 97.74 124.52 98.38 124.14 99.05C123.97 99.35 123.82 99.65 123.65 99.95C123.66 99.94 123.67 99.94 123.68 99.93C123.25 100.58 122.91 101.29 122.5 101.96C122.02 102.72 121.5 103.45 121.03 104.22C120.39 105.28 119.78 106.35 119.19 107.44C118.82 108.13 118.48 108.84 118.12 109.55C117.77 110.25 117.37 110.93 117.01 111.64C116.53 112.6 114.04 117.04 113.21 118.26C112.81 118.85 112.47 119.48 112.03 120.05C111.47 120.78 110.7 121.14 109.86 121.43C109.59 121.52 109.3 121.57 109.06 121.74C108.73 121.98 108.72 122.37 109.05 122.61C109.36 122.82 109.76 122.88 110.11 122.95C110.46 123.03 110.81 123.1 111.16 123.18C112.04 123.38 119.68 124.44 120.01 124.47C120.21 124.49 120.4 124.54 120.59 124.57C120.84 124.61 121.12 124.65 121.36 124.55C121.72 124.38 121.81 123.95 121.59 123.63C121.41 123.35 121.1 123.19 120.89 122.94C120.61 122.61 120.58 122.18 120.67 121.77C120.74 121.43 128.64 107.54 128.67 107.47C128.69 107.36 128.75 107.34 128.84 107.41C129.04 107.41 129.31 107.56 129.5 107.62C129.68 107.68 129.86 107.74 130.04 107.79C130.33 107.88 130.62 107.96 130.92 108.04C131.39 108.18 131.9 108.28 132.35 108.5C132.67 108.66 132.98 108.92 132.98 109.3C132.99 109.67 132.89 110.03 132.85 110.39C132.82 110.72 132.48 112.07 133.06 112.03C133.44 112 133.76 111.38 133.92 111.09C134.1 110.77 134.29 110.46 134.47 110.13C135.3 108.6 136.37 107.2 137.17 105.64C137.29 105.42 137.7 104.82 137.52 104.56C137.31 104.24 136.84 104.77 136.67 104.91C136.03 105.49 135.39 106.12 134.62 106.52C134.25 106.71 133.84 106.87 133.43 106.94C133.07 107 132.74 106.89 132.39 106.8C132.01 106.7 131.62 106.6 131.24 106.5C130.66 106.35 130.09 106.16 129.51 105.98C129.91 105.36 131.62 102.21 131.78 101.89C132.28 100.9 132.88 99.95 133.44 99C133.78 98.41 134.08 97.81 134.38 97.21C134.63 96.72 134.88 96.18 135.21 95.75L135.18 95.77C135.36 95.5 135.6 94.99 135.88 94.82C136.14 94.66 136.53 94.63 136.82 94.61C137.21 94.58 137.6 94.59 137.98 94.65C138.36 94.71 138.74 94.84 139.11 94.92C139.94 95.09 140.75 95.23 141.57 95.44C142.39 95.67 143.22 95.86 144.04 96.09L144.04 96.09ZM115.52 89.93C116.18 90.16 116.77 90.62 117.25 91.12C117.5 91.38 117.74 91.68 117.89 92.01C117.98 92.21 118.02 92.31 117.97 92.53L117.94 92.68C117.81 93.26 116.86 95.62 116.68 95.88C116.4 96.27 115.75 97.01 116.31 97.46C116.85 97.89 117.41 97.16 117.7 96.77C118.35 95.89 118.89 94.91 119.5 94C119.72 93.68 119.9 93.33 120.16 93.03C120.33 92.83 120.49 92.62 120.65 92.41C120.99 91.97 121.28 91.48 121.63 91.05C121.97 90.65 122.71 89.98 122.5 89.39C122.33 88.87 121.67 88.76 121.21 88.69C120.66 88.6 120.1 88.6 119.56 88.49C118.99 88.39 118.43 88.32 117.86 88.24C117.09 88.13 116.32 88.05 115.56 87.9C115.18 87.83 114.81 87.76 114.43 87.68C112.42 87.28 110.38 87.03 108.37 86.65C106.22 86.26 104.04 86.03 101.91 85.52C100.78 85.26 99.53 84.85 98.34 84.95C98.08 84.97 97.7 85.02 97.73 85.37C97.76 85.65 98.07 85.74 98.22 85.93C98.48 86.27 98.71 86.82 98.68 87.25C98.65 87.73 98.6 88.19 98.37 88.62C98.17 88.99 97.96 89.36 97.75 89.73C97.31 90.48 96.9 91.23 96.44 91.96C95.89 92.83 95.39 93.73 94.82 94.6C94.05 95.78 93.25 96.92 92.54 98.13C91.26 100.3 89.97 102.45 88.65 104.59C88.12 105.45 82.26 114.67 81.64 115.31C81.13 115.84 80.45 115.81 79.78 115.99C79.52 116.07 79.18 116.16 79.12 116.48C79.05 116.85 79.42 116.98 79.7 117.05C80.1 117.15 80.51 117.18 80.92 117.25C81.57 117.36 89.38 118.94 89.91 119.06C90.4 119.16 91.26 119.42 91.59 119.3C91.84 119.21 91.94 118.95 91.86 118.69C91.78 118.43 91.53 118.29 91.32 118.15C91.14 118.03 90.95 117.92 90.85 117.71C90.67 117.35 90.7 116.89 90.81 116.51C90.97 115.93 91.23 115.34 91.53 114.81C91.87 114.22 92.21 113.62 92.57 113.04C92.91 112.48 93.79 111.03 93.84 110.96C93.92 110.86 94.31 110.25 94.44 110.06C95.17 109 95.83 107.9 96.54 106.81C96.99 106.12 98.37 104.16 98.59 103.86C98.94 103.37 99.25 102.71 99.81 102.43C99.98 102.34 100.28 102.09 100.46 102.06C100.65 102.02 100.95 102.16 101.13 102.2C101.4 102.25 101.67 102.3 101.93 102.35C102.37 102.43 102.81 102.54 103.25 102.62C103.43 102.65 103.62 102.69 103.8 102.73L104.03 102.78C104.15 102.8 104.57 102.81 104.64 102.9C104.7 102.97 104.66 103.26 104.66 103.37C104.65 103.52 104.63 103.66 104.58 103.8C104.48 104.13 104.29 104.4 104.13 104.7C103.97 104.99 103.35 106.13 104.04 106.13C104.63 106.13 105.29 105.4 105.65 104.99C105.95 104.63 106.24 104.25 106.52 103.86C106.86 103.36 107.19 102.86 107.5 102.34C107.9 101.7 108.35 101.05 108.53 100.31C108.64 99.83 108.62 98.92 107.95 99.42C107.41 99.83 107.08 100.48 106.5 100.84L106.55 100.82C106.21 101.01 105.9 101.24 105.57 101.45L105.6 101.44C105.52 101.48 105.44 101.53 105.36 101.57C105.14 101.68 104.85 101.66 104.6 101.65C104.28 101.63 103.95 101.54 103.63 101.49C102.81 101.35 101.74 101.29 101.24 100.54C101.2 100.48 101.17 100.43 101.13 100.37C101.04 100.24 101.01 100.21 101.06 100.07C101.15 99.81 101.37 99.54 101.51 99.3C101.7 98.97 101.9 98.63 102.07 98.28C102.44 97.57 102.81 96.85 103.18 96.15C104.16 94.32 105.18 92.49 106.48 90.87C107.03 90.2 107.57 89.54 108.13 88.88C108.26 88.73 108.31 88.63 108.49 88.62C108.59 88.61 108.7 88.63 108.79 88.63C109.28 88.64 109.75 88.66 110.23 88.74C111.83 89 113.41 89.36 114.99 89.77L114.92 89.75C115.12 89.81 115.32 89.87 115.52 89.93L115.52 89.93ZM164.91 121.78C164.93 121.64 164.87 121.51 164.72 121.47C164.61 121.45 164.18 120.86 163.41 121.88C162.69 122.83 158.29 125.79 157.01 126.42C156.27 126.79 155.52 127.11 154.74 127.39C154.04 127.64 153.35 127.84 152.6 127.81C151.9 127.79 151.21 127.68 150.53 127.57C149.67 127.42 148 127.16 148.03 127.15C147.69 127.02 147.14 126.91 146.84 126.59C146.71 126.45 146.73 126.01 146.73 125.83C146.73 125.04 147.28 124.3 147.56 123.57C147.79 122.99 148.12 122.45 148.41 121.89C148.81 121.13 152.47 115.2 152.71 114.75C152.96 114.28 153.23 113.83 153.5 113.37C153.57 113.25 153.63 113.07 153.75 113.03C153.88 113 154.1 113.06 154.24 113.06C154.76 113.1 155.28 113.17 155.8 113.25C156.26 113.31 156.72 113.42 157.17 113.54C157.35 113.59 157.53 113.62 157.65 113.75C157.81 113.91 157.86 114.12 157.85 114.34C157.82 114.82 157.62 115.34 157.46 115.8C157.35 116.16 157.19 116.5 157.07 116.85C156.96 117.18 156.7 117.64 156.87 117.99C157.04 118.34 157.45 118.29 157.72 118.09C158.32 117.65 158.7 116.83 159.08 116.21C159.55 115.48 160.02 114.75 160.48 114.02C161.25 112.82 162.19 111.69 162.8 110.4C162.93 110.12 163.22 109.56 163.06 109.24C162.87 108.87 162.39 109.19 162.17 109.34C161.37 109.88 160.82 110.69 160.11 111.33C159.76 111.64 159.32 111.92 158.86 112.03C158.39 112.13 157.92 112.03 157.46 111.93C156.86 111.8 156.26 111.7 155.66 111.59C155.33 111.52 155 111.48 154.67 111.44C155.46 110.29 159.05 105.41 160.04 104.08C160.49 103.49 160.9 102.87 161.36 102.28C161.83 101.66 162.27 101 162.78 100.42C163.05 100.12 163.83 99.27 164.07 99.15C164.16 99.09 164.77 99.12 164.88 99.1C165.04 99.08 165.27 99.16 165.42 99.19C166.24 99.32 167.06 99.44 167.88 99.59C168.68 99.73 169.47 99.93 170.24 100.18C171.25 100.5 172.42 101.02 172.81 102.1C172.98 102.58 172.98 103.07 172.98 103.57C172.98 104.1 172.93 104.62 172.77 105.13C172.5 105.94 172.2 106.74 171.99 107.57C171.89 107.96 171.11 109.66 172 109.63C172.51 109.61 172.83 108.93 173.12 108.6C173.43 108.24 173.67 107.82 173.89 107.39C174.31 106.56 174.9 105.81 175.44 105.04C175.87 104.43 176.26 103.77 176.65 103.13C177.1 102.41 177.56 101.65 177.79 100.83C177.91 100.41 178.01 99.86 177.66 99.52C177.36 99.24 175.02 98.96 174.28 98.84C173.46 98.7 172.65 98.55 171.83 98.42C171.5 98.38 164.08 97.06 163.09 96.87C162.22 96.69 156.94 95.49 156.5 95.34C156.28 95.27 155.81 95.03 155.66 95.36C155.62 95.45 155.6 95.55 155.61 95.64C155.62 95.67 155.67 95.81 155.7 95.86C155.82 96.05 156.02 96.44 156.04 96.57C156.08 96.8 156.09 97.02 156.07 97.26C156.04 97.63 155.85 97.83 155.63 98.11C155.2 98.66 154.77 99.2 154.36 99.76C153.43 101.02 152.59 102.33 151.71 103.62C150.76 105.03 149.7 106.36 148.77 107.78C148.07 108.84 147.45 109.95 146.84 111.05C146.39 111.88 145.83 112.63 145.32 113.42C144.91 114.05 144.52 114.7 144.15 115.36C143.71 116.13 143.25 116.9 142.67 117.59C142.31 118.03 139.36 122.89 139.05 123.52C138.9 123.82 138.74 124.12 138.57 124.4C138.38 124.71 138.22 125.16 137.87 125.31C137.4 125.51 136.93 125.7 136.46 125.87C136.18 125.98 135.86 126.05 135.65 126.28C135.36 126.6 135.47 127.02 135.85 127.18C136.46 127.45 137.22 127.45 137.88 127.52C138.58 127.59 139.26 127.72 139.94 127.85C141.2 128.1 150.22 129.61 151.81 129.8C152.51 129.89 153.2 129.97 153.88 130.12C154.6 130.27 155.34 130.34 156.05 130.54C156.97 130.78 157.91 131 158.85 131.17C159.2 131.24 159.52 131.2 159.84 131C160.14 130.82 160.73 129.71 160.87 129.44C161.06 129.06 162.12 126.82 162.54 126.13C163.02 125.33 164.88 122.06 164.91 121.78ZM90.55 66.44C90.04 67.85 88.65 68.78 87.19 69.03C86.67 69.12 86.19 69.06 85.67 69.02C85.25 68.98 84.82 69.02 84.41 68.97C83.97 68.91 83.54 68.84 83.1 68.81C83.87 67.86 84.53 66.8 85.24 65.81C85.83 64.98 86.41 64.06 87.23 63.44C87.59 63.17 88.16 62.87 88.6 62.93C89.13 63.01 89.57 63.14 90.01 63.44C90.45 63.75 90.74 64.13 90.8 64.68C90.88 65.28 90.73 65.86 90.55 66.44ZM86.81 72.1C86.53 72.88 86.16 73.63 85.73 74.34C85.25 75.1 84.55 75.75 83.7 76.03C82.88 76.29 81.91 76.38 81.06 76.31C80.3 76.24 79.57 76.01 78.82 75.89C79.48 74.54 80.26 73.21 81.07 71.94C81.49 71.29 81.83 70.58 82.26 69.94C82.36 69.8 82.43 69.62 82.59 69.59C82.71 69.57 82.91 69.64 83.03 69.66C83.57 69.74 84.11 69.81 84.64 69.87C85.19 69.93 85.94 69.92 86.36 70.32C86.88 70.81 86.99 71.43 86.81 72.1ZM94.44 65.57C94.4 65.27 94.35 64.96 94.21 64.7C94.06 64.43 93.9 64.17 93.72 63.92C93.35 63.41 92.71 63.14 92.14 62.93C91.39 62.67 87.68 62.01 87.17 61.92C86.6 61.81 86.03 61.69 85.46 61.6C84.71 61.47 83.96 61.31 83.21 61.21C82.91 61.18 81.8 60.9 82.14 61.48C82.16 61.52 82.21 61.56 82.24 61.62C82.28 61.7 82.3 61.8 82.33 61.88C82.38 62.01 82.43 62.13 82.47 62.25C82.59 62.55 82.64 62.71 82.48 63.01C82.22 63.52 81.8 63.97 81.45 64.42C81.23 64.7 81.02 64.98 80.8 65.26C80.43 65.75 80.07 66.24 79.74 66.74C79.19 67.57 78.57 68.35 78.02 69.18C77.42 70.07 76.86 70.99 76.22 71.86C75.69 72.6 75.11 73.31 74.57 74.05C74.39 74.3 74.23 74.57 74.06 74.84C73.76 75.3 73.24 75.34 72.79 75.55C72.59 75.64 72.54 75.86 72.74 75.98C72.85 76.04 73.05 76.05 73.16 76.07C73.59 76.14 74.01 76.17 74.44 76.23L74.81 76.28C74.85 76.29 74.92 76.28 74.96 76.3C75.06 76.35 76.51 76.6 76.76 76.65C77 76.69 78.78 76.97 79.01 77.01C79.3 77.06 79.58 77.11 79.87 77.17C80.74 77.38 81.6 77.61 82.49 77.75C83.76 77.94 85.08 78.25 86.37 78.2C86.89 78.18 87.42 78.12 87.93 78.01C88.21 77.96 88.47 77.87 88.7 77.7C88.79 77.62 89.02 77.5 89.09 77.41C89.16 77.32 89.54 76.87 89.69 76.71C89.88 76.5 89.98 76.23 90.13 75.99C90.35 75.64 90.51 75.22 90.65 74.83C91.1 73.57 91.33 72.25 90.58 71.05C90.28 70.57 89.87 70.24 89.36 70C89.75 69.99 90.18 69.86 90.55 69.76C91.24 69.58 91.92 69.23 92.51 68.84C93.56 68.15 94.63 66.92 94.44 65.57L94.44 65.57ZM113.03 66.48C113.2 66.38 113.35 66.19 113.29 65.99C113.24 65.78 113.01 65.8 112.83 65.76C112.33 65.64 110.94 65.42 110.83 65.39C110.56 65.3 110.18 65.26 109.92 65.19C109.51 65.07 108.95 64.94 108.53 65.05C108.16 65.15 108.07 65.47 108.34 65.76C108.66 66.11 109.24 66.14 109.61 66.44C110.14 66.88 109.38 67.87 109.15 68.33C108.91 68.83 106.38 72.86 105.76 73.74C105.2 74.55 104.67 75.36 104.01 76.09C103.31 76.86 102.54 77.54 101.64 78.06C100.84 78.52 99.75 79.02 98.82 78.63C98.6 78.54 98.41 78.4 98.24 78.24C98.16 78.16 98.08 78.09 98.01 78.01C97.94 77.94 97.81 77.2 97.85 77.06C97.92 76.83 97.98 76.6 98.06 76.37C98.32 75.54 98.77 74.57 99.16 73.72C99.55 72.84 99.96 71.97 100.41 71.11C100.99 70 101.64 68.92 102.27 67.83C102.46 67.5 102.67 67.19 102.88 66.87C103.09 66.54 103.3 66.14 103.64 65.93C104.04 65.7 105.76 65.62 105.3 64.79C105.13 64.5 104.76 64.46 104.47 64.39C104.21 64.33 103.94 64.29 103.67 64.22C102.83 64.01 101.96 63.93 101.1 63.77C100.48 63.66 99.89 63.5 99.26 63.43C99.04 63.4 98.43 63.24 98.37 63.58C98.35 63.66 98.4 63.73 98.38 63.82C98.37 63.9 98.69 64.3 98.83 64.43C98.89 64.49 99.08 64.67 99.1 64.7C99.15 64.75 99.18 64.86 99.2 64.92C99.24 65.08 99.21 65.1 99.12 65.25L99.15 65.21C98.53 66.14 97.95 67.1 97.42 68.09C97.1 68.69 96.8 69.31 96.47 69.9C96.22 70.35 95.94 70.79 95.71 71.25C95.16 72.34 94.61 73.47 94.17 74.6C93.92 75.23 93.71 75.9 93.79 76.59C93.87 77.25 94.22 77.81 94.71 78.25C95.14 78.62 95.63 78.9 96.14 79.15C96.46 79.3 96.79 79.38 97.12 79.53C97.37 79.64 98.15 79.85 98.28 79.86C98.45 79.87 98.62 79.91 98.8 79.92C99.15 79.94 99.55 80.01 99.89 79.97C100.57 79.9 101.24 79.85 101.87 79.58C103.91 78.71 106.23 75.91 107.48 73.5C107.87 72.75 108.28 72.02 108.68 71.28C109.07 70.55 109.55 69.86 109.91 69.11C110.07 68.79 110.22 68.46 110.37 68.13L110.64 67.58C110.7 67.46 110.86 67.08 110.98 66.99C111.16 66.84 111.56 66.9 111.8 66.86C112.23 66.78 112.65 66.69 113.03 66.48L113.03 66.48ZM131.15 69.78C130.99 69.35 130.21 69.34 129.85 69.27C129.27 69.15 128.68 69.03 128.09 68.94C127.56 68.86 127.05 68.78 126.53 68.66C126.13 68.56 125.73 68.46 125.33 68.38C123.72 68.07 122.09 67.94 120.48 67.63C120.07 67.55 119.67 67.48 119.26 67.4C118.47 67.24 117.69 67.19 116.9 67.1C116.4 67.03 115.91 66.97 115.41 66.91C115.19 66.89 114.98 66.83 114.78 66.91C114.58 66.99 114.38 67.16 114.21 67.31C114.01 67.49 113.86 67.68 113.7 67.91C113.53 68.14 113.29 68.31 113.11 68.54C112.9 68.82 112.53 69.47 113.11 69.58C113.41 69.64 113.73 69.4 113.98 69.25C114.21 69.11 114.45 68.96 114.67 68.8C115.23 68.42 115.74 68.08 116.43 68.03C117.05 67.99 117.7 68.09 118.31 68.2C118.61 68.25 118.9 68.31 119.2 68.36C119.35 68.38 119.98 68.39 120.05 68.52C119.95 68.95 119.51 69.37 119.23 69.71C118.88 70.14 118.54 70.59 118.21 71.05C117.56 71.95 116.93 72.88 116.31 73.8C115.73 74.68 115.16 75.57 114.61 76.47C114.41 76.8 114.19 77.13 113.98 77.46C113.8 77.76 112.51 79.71 112.06 80.39C111.76 80.83 111.39 81.21 110.87 81.38C110.49 81.5 110.01 81.49 109.72 81.81C109.29 82.26 109.78 82.63 110.22 82.72C110.75 82.84 111.32 82.86 111.86 82.91C112.8 82.98 113.74 83.11 114.66 83.28C115.34 83.42 116.02 83.58 116.71 83.7C117.07 83.76 117.43 83.88 117.8 83.93C118.32 84.01 118.77 83.67 118.52 83.12C118.38 82.8 117.95 82.54 117.87 82.21C117.77 81.83 118.05 81.41 118.23 81.1C118.49 80.64 118.78 80.2 119.06 79.75C119.81 78.58 120.53 77.4 121.31 76.26C122.31 74.81 123.36 73.39 124.3 71.9C124.55 71.5 124.82 71.1 125.12 70.72C125.29 70.5 125.47 70.28 125.65 70.06C125.74 69.96 125.9 69.66 126.03 69.6C126.08 69.58 126.17 69.62 126.22 69.63C126.52 69.7 126.82 69.76 127.12 69.83C127.57 69.92 128.02 70.03 128.49 70.09C128.75 70.13 129.01 70.19 129.25 70.28C129.46 70.36 129.5 70.43 129.51 70.66C129.52 71.09 129.28 71.51 129.22 71.94C129.16 72.42 129.56 72.79 129.85 72.29C130.11 71.85 130.39 71.42 130.65 70.98C130.83 70.68 131.3 70.16 131.15 69.78ZM154.66 74.24C154.75 74.47 154.8 74.7 154.82 74.95C154.84 75.17 154.79 75.49 154.94 75.67C155.3 76.09 155.71 75.35 155.89 75.12C156.15 74.81 156.78 74.22 156.67 73.78C156.61 73.54 156.4 73.53 156.2 73.48C155.92 73.42 155.66 73.32 155.39 73.25C154.24 72.95 143.45 71.28 142.34 71.13C142.14 71.1 141.94 71.07 141.74 71.03C141.7 71.03 141.6 71.02 141.56 71C141.52 70.97 140.99 70.91 140.86 70.96C140.66 71.02 140.49 71.07 140.45 71.31C140.4 71.58 140.61 71.8 140.81 71.94C140.92 72.01 141.25 72.11 141.28 72.22C141.33 72.36 141.1 72.74 141.04 72.87C140.91 73.16 140.77 73.45 140.65 73.74C139.86 75.65 138.73 77.4 137.69 79.17C137.39 79.67 137.15 80.21 136.85 80.7C136.55 81.19 136.26 81.68 135.97 82.16C135.71 82.59 135.46 83.02 135.17 83.42C135.01 83.64 134.48 84.53 134.31 84.75C134.1 85.01 133.95 85.07 133.63 85.15C133.39 85.21 133.13 85.27 132.9 85.37C132.48 85.57 132.23 86.03 132.76 86.26C133.22 86.46 133.75 86.52 134.23 86.66C134.57 86.76 139.38 87.38 139.4 87.4C139.6 87.52 139.85 87.47 139.95 87.24C140.1 86.88 139.75 86.59 139.49 86.41C139.34 86.31 139.21 86.27 139.2 86.09C139.2 85.88 139.46 85.53 139.56 85.35C139.81 84.88 140.07 84.42 140.33 83.96C140.7 83.31 141.09 82.68 141.47 82.05C141.89 81.37 142.3 80.69 142.71 80.01C142.82 79.83 142.93 79.66 143.04 79.48C143.09 79.41 143.15 79.25 143.22 79.21C143.32 79.14 143.52 79.22 143.65 79.24C144.26 79.34 144.87 79.42 145.47 79.52C146.02 79.61 146.57 79.69 147.11 79.76C147.48 79.82 146.89 80.61 147.2 80.75C147.51 80.9 147.77 80.48 147.95 80.29C148.16 80.07 149.19 78.74 148.66 78.69C148.34 78.66 148.15 79 147.46 78.95C147.06 78.92 146.77 78.85 146.38 78.81C145.5 78.7 144.65 78.48 143.79 78.24C144.1 77.76 144.42 77.3 144.72 76.82L144.68 76.86C145.22 76.09 145.69 75.27 146.21 74.49C146.59 73.9 147.11 72.77 147.93 72.76C148.2 72.76 150.85 73.09 151.38 73.21C151.98 73.33 154.51 73.78 154.56 73.84C154.6 73.89 154.63 74.17 154.66 74.24ZM166.15 77.52C166.66 76.85 167.59 77.01 168.31 76.78C168.57 76.69 168.91 76.53 168.97 76.24C169.01 76.07 168.94 75.93 168.83 75.81C168.79 75.76 168.69 75.68 168.61 75.67C168.53 75.66 168.07 75.62 167.91 75.58C167.72 75.53 164.21 75.06 163.33 74.93C162.51 74.82 160.04 74.3 159.59 74.31C159.46 74.31 159.11 74.22 158.95 74.31C158.88 74.38 158.85 74.44 158.87 74.41C158.82 74.48 158.81 74.52 158.82 74.61C158.83 74.68 158.89 74.76 158.94 74.8C159.13 75 159.3 75.19 159.51 75.37C159.77 75.6 159.96 75.7 159.91 76.09C159.85 76.5 159.64 76.9 159.46 77.26C158.85 78.43 156.08 83.03 155.33 84.22C155 84.74 153.46 87.42 153.13 87.73C153.25 87.62 153.04 87.8 152.99 87.83C152.88 87.9 152.75 87.96 152.64 88.01C152.32 88.16 152 88.26 151.67 88.38C151.38 88.49 150.25 88.82 150.75 89.33C150.97 89.54 153.95 89.97 154.61 90.14C155.25 90.3 158.87 90.83 159.17 90.89C159.41 90.94 159.67 91.03 159.86 90.82C160.31 90.35 159.53 90.02 159.24 89.82C159.19 89.78 159.09 89.73 159.05 89.67C158.98 89.58 158.98 89.59 159.02 89.46C159.05 89.38 159.08 89.29 159.11 89.21C159.2 88.96 159.33 88.72 159.46 88.48C159.74 87.97 160 87.45 160.3 86.95L160.27 86.98C160.83 86.17 162.47 83.27 162.82 82.66C163.33 81.8 163.82 80.93 164.39 80.11C164.98 79.26 165.51 78.34 166.15 77.52L166.15 77.52ZM174.03 82.49C174.67 81.52 175.19 80.51 175.87 79.57C176.15 79.18 176.39 78.77 176.66 78.37C176.74 78.25 176.83 78.11 176.92 77.99C176.97 77.93 177.15 77.69 177.24 77.65C177.43 77.57 177.66 77.62 178.2 77.84C178.71 78.01 179.29 78.35 179.54 78.86C179.8 79.38 179.69 80.05 179.53 80.59C179.42 80.98 179.19 81.29 178.96 81.61C178.66 82.04 178.34 82.44 177.96 82.8C177.74 83.02 177.5 83.22 177.26 83.41C177.15 83.51 177.03 83.61 176.92 83.7C176.85 83.76 176.62 83.99 176.54 83.99C176.4 83.98 176.1 83.66 175.97 83.58C175.81 83.47 175.61 83.32 175.44 83.24C174.91 83 174.43 82.86 173.91 82.67C173.95 82.62 173.99 82.55 174.03 82.49ZM181.67 92.78C181.7 92.61 181.67 92.38 181.48 92.33C181.29 92.27 181.11 92.48 181.01 92.62C180.76 92.97 180.75 93.4 180.32 93.63C179.99 93.81 179.43 93.86 179.07 93.82C178.64 93.77 178.38 93.3 178.23 92.9C177.63 91.37 178.07 89.92 178.03 88.35C178 87.15 177.63 86.02 177.11 84.96C177.91 84.88 178.7 84.73 179.46 84.46C180.2 84.2 180.97 84.01 181.66 83.64C182.81 83.04 183.75 82.13 184.01 80.81L184.03 80.72C183.98 80.95 184.04 80.62 184.04 80.6C184.05 80.53 184.05 80.46 184.06 80.39C184.06 80.22 184.04 80.05 184 79.88C183.92 79.48 183.77 79.1 183.57 78.75C183.19 78.12 182.53 77.78 181.86 77.53C181.65 77.45 181.44 77.37 181.21 77.34C181.09 77.32 180.43 77.21 180.22 77.16C179.49 77 171.63 75.74 171.55 75.71C171.4 75.65 171.25 75.7 171.09 75.74C170.79 75.82 170.86 76.07 171.11 76.2C171.36 76.33 171.65 76.39 171.91 76.52C172.06 76.59 172.21 76.6 172.2 76.76C172.19 76.87 172.08 77.04 172.04 77.15C171.91 77.44 171.76 77.71 171.6 77.99C171.14 78.82 170.62 79.61 170.12 80.41C169.68 81.09 168.2 83.49 167.88 84C167.58 84.48 165.36 88.29 164.9 89.03C164.76 89.26 164.61 89.49 164.45 89.71C164.31 89.89 164.14 90.05 163.96 90.19C163.83 90.28 163.75 90.3 163.6 90.37C163.45 90.45 163.12 90.59 163.14 90.76C163.15 90.87 163.23 90.89 163.31 90.92C163.42 90.97 163.59 91.01 163.72 91.04C163.97 91.1 164.23 91.14 164.49 91.18C164.97 91.25 167.19 91.72 167.82 91.87C168.14 91.95 169.4 92.22 169.51 91.79C169.58 91.53 169.27 91.4 169.15 91.2C168.98 90.96 168.95 90.72 169.02 90.42C169.14 89.86 169.55 89.38 169.83 88.89C170.81 87.17 171.97 85.53 173.11 83.92C173.14 83.88 173.17 83.83 173.2 83.79C173.33 83.6 173.33 83.57 173.51 83.71C173.78 83.92 174.03 84.22 174.15 84.55C174.42 85.29 174.27 86.13 174.21 86.89C174.16 87.71 174.16 88.53 174.15 89.34C174.15 90.12 174.04 90.9 174.09 91.68C174.14 92.45 174.34 93.22 174.82 93.84C175.25 94.4 175.88 94.79 176.52 95.08C177.24 95.41 177.97 95.45 178.75 95.31C179.43 95.19 180.24 94.96 180.77 94.5C181.31 94.03 181.54 93.45 181.67 92.78L181.67 92.78Z" fill="#000000" fill-opacity="1.000000" fill-rule="evenodd"/>
		<path id="Vector" d="M197.58 86.81C197.91 86.32 198.24 85.83 198.54 85.32C198.68 85.08 198.82 84.83 198.96 84.58C199.05 84.4 199.12 84.17 198.89 84.06C198.65 83.95 198.55 84.16 198.42 84.29C198.22 84.48 197.51 84.72 197.3 84.43C197.21 84.3 197.23 83.99 197.21 83.83C197.19 83.53 197.16 83.22 197.11 82.92C196.98 82.21 196.76 81.51 196.31 80.92C196.07 80.6 195.35 80.18 194.97 80.03C194.49 79.83 193.2 79.46 192.84 79.4C192.34 79.32 191.38 79.27 190.88 79.36C190.4 79.44 188.88 80.05 188.48 80.38C187.67 81.06 187.22 81.93 187.05 82.96C186.85 84.17 187.04 85.43 187.43 86.58C187.8 87.7 188.21 88.86 188.56 89.95L188.6 90.08C188.54 89.9 188.6 90.09 188.61 90.12C188.63 90.2 188.65 90.28 188.67 90.36C188.71 90.51 188.75 90.67 188.77 90.83C188.81 91.12 188.81 91.41 188.78 91.71C188.72 92.34 188.57 92.96 188.24 93.51C187.95 93.99 187.51 94.45 186.9 94.45C186.23 94.46 185.76 94.1 185.35 93.59C184.67 92.74 184.18 91.69 183.93 90.63C183.71 89.69 183.71 88.7 183.44 87.78C183.38 87.56 183.31 87.46 183.09 87.56C182.95 87.63 182.32 88.57 182.23 88.68C181.66 89.35 181.15 90.14 180.71 90.9C180.57 91.15 180.42 91.39 180.27 91.62C180.15 91.81 180.08 92.02 179.96 92.2C179.88 92.33 179.76 92.45 179.82 92.62C179.91 92.89 180.18 92.81 180.36 92.69C180.59 92.55 180.81 92.39 181.03 92.24C181.43 91.97 182.06 91.5 182.57 91.58C182.75 91.61 183.21 92.29 183.38 92.5C183.58 92.75 183.72 93.11 183.87 93.4C184.11 93.85 184.43 94.27 184.75 94.67C184.93 94.91 185.75 95.76 185.9 95.83C186.22 95.97 186.55 96.13 186.88 96.25C187.87 96.62 189.07 96.5 190.1 96.38C191.18 96.25 192.26 95.72 192.87 94.8C193.53 93.81 193.89 92.62 193.72 91.42C193.64 90.84 193.43 90.3 193.35 89.73C193.26 89.08 193.09 88.45 192.93 87.82C192.64 86.63 192.32 85.49 192.16 84.28C192.09 83.7 191.93 83.02 192.07 82.45C192.19 81.89 192.65 81.39 193.22 81.34C193.46 81.32 193.85 81.3 194.07 81.42C194.35 81.58 194.6 81.76 194.82 82C195.24 82.44 195.62 82.94 195.93 83.47C196.46 84.4 196.47 85.52 196.37 86.55C196.34 86.86 196.3 87.18 196.28 87.49C196.27 87.67 196.21 87.91 196.29 88.07C196.46 88.43 196.86 87.91 196.97 87.73C197.17 87.42 197.37 87.12 197.58 86.81ZM188.47 89.95L188.46 89.91L188.47 89.95ZM217.69 84.58C217.66 84.25 217.33 84.15 217.06 84.09C216.62 84 216.18 83.91 215.74 83.82C214.87 83.65 210.79 82.9 209.61 82.73C208.58 82.57 204.71 81.85 203.78 81.79C203.09 81.75 202.4 81.64 201.71 81.56C201.4 81.53 201.25 81.57 200.98 81.74C200.8 81.85 200.63 82.01 200.48 82.17C200.33 82.32 200.15 82.64 200.03 82.76C199.89 82.9 199.52 83.34 199.43 83.51C199.23 83.85 199.13 84.07 199.49 84.23C199.83 84.38 200.25 84.05 200.53 83.87C200.9 83.64 201.26 83.38 201.63 83.15C202.37 82.68 203.12 82.65 203.97 82.75C204.37 82.8 206.29 83.04 206.46 83.15C206.64 83.26 206.32 83.61 206.21 83.76C205.94 84.12 205.64 84.46 205.36 84.82C204.84 85.48 204.35 86.19 203.88 86.88C202.96 88.23 202.04 89.59 201.19 90.98C201.03 91.24 200.87 91.49 200.7 91.74C200.57 91.94 198.52 95.26 198.05 95.66C197.79 95.87 197.49 96.02 197.17 96.1C196.85 96.17 196.48 96.21 196.23 96.44C195.91 96.73 196.01 97.12 196.37 97.29C196.71 97.46 197.14 97.46 197.51 97.5C198.29 97.58 202.05 98.29 203.21 98.49C203.67 98.57 204.72 98.92 205.03 98.36C205.22 98.01 204.95 97.64 204.74 97.38C204.6 97.22 204.39 97.05 204.36 96.84C204.3 96.3 204.71 95.76 204.98 95.32C205.18 94.98 205.41 94.67 205.62 94.34C206.26 93.33 206.87 92.29 207.55 91.31C207.72 91.07 207.88 90.82 208.05 90.58C208.5 89.95 208.91 89.29 209.38 88.68C210.28 87.47 211 86.15 211.96 84.98C212.09 84.82 212.22 84.66 212.35 84.51C212.38 84.47 212.48 84.31 212.54 84.28C212.69 84.22 215.15 84.79 215.5 84.88C215.86 84.98 216.04 85.03 216.02 85.43C216 85.77 215.84 86.11 215.77 86.44C215.71 86.7 215.65 87.16 216 87.23C216.31 87.28 216.47 86.81 216.59 86.59C216.8 86.22 217.68 84.92 217.69 84.58L217.69 84.58ZM212.58 98.68C212.58 97.55 211.35 96.78 210.24 96.95C209.22 97.1 208.22 98.62 209.6 99.15C209.73 99.2 210.2 99.22 210.24 99.35C210.29 99.55 209.76 99.74 209.63 99.79C209.17 100 208.69 99.98 208.21 100.1C208.04 100.15 207.81 100.27 207.92 100.48C208.02 100.64 208.38 100.74 208.54 100.8C208.98 100.96 209.44 101.03 209.9 101.01C211.26 100.96 212.57 100.01 212.58 98.68ZM194.58 134.19C193.68 133.62 192.47 133.9 191.69 134.52C191.25 134.86 190.88 135.28 190.92 135.85C190.95 136.33 191.17 136.77 191.55 137.06C192.34 137.65 193.76 137.48 194.4 136.75C194.99 136.08 195.56 134.82 194.58 134.19ZM194.21 126.64C194.23 126.5 194.18 126.36 194.02 126.33C193.91 126.31 193.49 125.71 192.71 126.73C191.99 127.69 187.6 130.64 186.32 131.28C185.58 131.64 184.82 131.96 184.05 132.24C183.34 132.49 182.65 132.69 181.9 132.67C181.21 132.65 180.51 132.54 179.83 132.42C178.97 132.28 177.31 132.02 177.33 132.01C177 131.87 176.45 131.76 176.15 131.44C176.02 131.31 176.03 130.87 176.03 130.69C176.03 129.89 176.58 129.15 176.87 128.43C177.1 127.84 177.42 127.3 177.71 126.75C178.11 125.99 181.77 120.06 182.02 119.6C182.26 119.14 182.54 118.68 182.8 118.23C182.87 118.11 182.93 117.93 183.06 117.89C183.18 117.85 183.4 117.91 183.54 117.92C184.07 117.95 184.59 118.03 185.11 118.1C185.57 118.17 186.02 118.27 186.47 118.4C186.66 118.45 186.83 118.47 186.96 118.6C187.12 118.76 187.17 118.97 187.15 119.19C187.12 119.68 186.92 120.2 186.77 120.66C186.65 121.01 186.49 121.35 186.37 121.71C186.26 122.04 186.01 122.5 186.17 122.84C186.35 123.2 186.76 123.14 187.03 122.94C187.62 122.5 188 121.68 188.39 121.07C188.85 120.33 189.32 119.61 189.79 118.88C190.55 117.67 191.49 116.55 192.11 115.25C192.24 114.98 192.53 114.41 192.37 114.1C192.18 113.73 191.7 114.05 191.47 114.2C190.67 114.74 190.13 115.55 189.41 116.18C189.06 116.5 188.62 116.78 188.16 116.88C187.69 116.99 187.23 116.89 186.76 116.79C186.17 116.66 185.56 116.56 184.96 116.44C184.63 116.38 184.3 116.34 183.97 116.29C184.76 115.15 188.35 110.27 189.34 108.94C189.79 108.35 190.21 107.73 190.66 107.14C191.13 106.52 191.57 105.86 192.09 105.28C192.36 104.98 193.14 104.13 193.37 104C193.47 103.95 194.07 103.97 194.19 103.96C194.34 103.94 194.57 104.02 194.73 104.04C195.55 104.17 196.37 104.3 197.18 104.45C197.98 104.59 198.77 104.79 199.54 105.03C200.56 105.36 201.73 105.88 202.12 106.96C202.29 107.43 202.28 107.92 202.28 108.42C202.28 108.95 202.24 109.48 202.07 109.99C201.8 110.8 201.51 111.59 201.3 112.42C201.2 112.81 200.41 114.51 201.3 114.48C201.81 114.46 202.14 113.79 202.43 113.46C202.73 113.1 202.97 112.68 203.19 112.25C203.62 111.41 204.2 110.66 204.74 109.9C205.17 109.29 205.56 108.63 205.96 107.99C206.4 107.26 206.86 106.51 207.09 105.68C207.21 105.27 207.31 104.72 206.96 104.38C206.67 104.09 204.32 103.82 203.59 103.69C202.77 103.56 201.95 103.4 201.13 103.28C200.8 103.23 193.38 101.92 192.4 101.72C191.52 101.55 186.25 100.35 185.81 100.2C185.58 100.12 185.12 99.88 184.96 100.22C184.92 100.31 184.9 100.4 184.91 100.5C184.93 100.53 184.97 100.67 185 100.72C185.12 100.91 185.32 101.3 185.34 101.42C185.38 101.65 185.4 101.88 185.37 102.11C185.34 102.49 185.15 102.68 184.93 102.97C184.51 103.52 184.07 104.06 183.66 104.62C182.74 105.87 181.9 107.19 181.02 108.48C180.06 109.88 179.01 111.22 178.07 112.64C177.38 113.69 176.76 114.81 176.15 115.91C175.69 116.73 175.14 117.49 174.62 118.27C174.21 118.91 173.82 119.55 173.45 120.21C173.01 120.99 172.55 121.76 171.98 122.45C171.62 122.88 168.66 127.75 168.35 128.37C168.2 128.67 168.05 128.97 167.88 129.26C167.69 129.56 167.52 130.01 167.17 130.17C166.71 130.37 166.24 130.56 165.76 130.73C165.48 130.83 165.16 130.91 164.95 131.13C164.66 131.45 164.77 131.87 165.15 132.04C165.76 132.31 166.53 132.3 167.19 132.38C167.88 132.45 168.56 132.57 169.25 132.71C170.51 132.95 179.53 134.47 181.12 134.66C181.81 134.74 182.5 134.83 183.18 134.97C183.91 135.12 184.64 135.2 185.35 135.39C186.28 135.64 187.21 135.85 188.15 136.03C188.5 136.09 188.83 136.06 189.14 135.86C189.44 135.67 190.04 134.56 190.17 134.3C190.37 133.92 191.43 131.68 191.84 130.98C192.33 130.18 194.18 126.91 194.21 126.64L194.21 126.64Z" fill="#000000" fill-opacity="1.000000" fill-rule="evenodd"/>
	</g>
</svg>
