<svg width="120" height="143" fill="none" xmlns="http://www.w3.org/2000/svg"><path d="M16.337 17.181c.27.178.49.267.751.445.237.348.277.737.253 1.117 0 .025.016.065.016.09-.036.4-.164.81-.289 1.207-.263.842-.51 1.63.167 2.152.516.401 1.037.793 1.552 1.18 5.004 3.761 9.476 7.123 3.63 15.122-1.756 2.405.675 2.429 2.847 2.45 1.3.012 2.509.024 2.67.545-.11 3.294-2.518 4.264-4.61 5.108-2.058.83-3.812 1.536-2.775 4.21 1.451 3.749 3.148 2.117 4.867.464.793-.763 1.59-1.53 2.372-1.776.204-.057 1.216 1.166 1.142 1.675-1.24 8.058 1.916 6.888 5.354 5.615 1.812-.672 3.702-1.372 5.068-.766-6.716 9.665-3.346 12.304 7.395 10.904 9.912-1.295 11.849 7.256 13.203 13.237.196.864.38 1.674.573 2.394 2.383 8.895-6.292 7.843-12.43 7.058-2.073-.259-5.664.162-4.57 1.651.851 1.157.118 2.462-.567 3.68-.95 1.689-1.806 3.212 1.783 3.945 6.53 1.344 4.538 4.671 1.657 7.771-5.11 5.521-4.195 10.289 2.652 12.741 2.277.826 4.48 1.813 9.745 3.983-10.18-.427-14.913 4.806-19.596 9.982-3.138 3.469-6.253 6.913-10.969 8.611 3.977 1.585 6.591.995 9.036.443.676-.153 1.34-.302 2.015-.402 4.613-.664 8.928-2.227 13.261-3.796 5.97-2.162 11.973-4.336 18.83-4.186 12.846.259 26.043-1.052 38.57-4.913 2.457-.753 6.007-2.283 5.975-5.569-.041-3.95-6.089-.178-7.011-4.169.971-1.149 1.616-2.258 2.595-2.922 5.003-3.432 9.68-7.569 8.235-14.069-1.502-6.815-7.876-6.75-13.262-6.249-3.16.267-3.287-.692-3.542-2.62a23.309 23.309 0 0 0-.172-1.152c-3.044-17.177-21.432-24.988-26.1-41.396-.465-1.643-2.832-3.262-4.668-3.91-7.296-2.574-7.394-6.346-2.946-11.866 2.293-2.866 3.485-6.565 5.574-9.625 4.244-6.176 2.938-8.952-4.758-8.726-4.116.123-8.233.096-12.656.067a942.478 942.478 0 0 0-6.262-.026c1.575-6.225 5.941-7.472 8.642-10.28 2.327-2.388 4.04-7.35-1.33-6.517-2.226.352-4.635.388-7.07.425-7.612.114-15.481.233-18.826 9.977a45.44 45.44 0 0 1-1.134 2.93c-2.832 6.29-6.88 8.71-14.12 4.201-.154-.234-.163-.453-.448-.655-.066.024-.14.04-.205.064-.024.057-.065.106-.09.146h-.024Zm6.745-14.619c-7.712 2.04-12.16 6.104-11.613 14.32-5.166.504-3.668 2.588-2.287 4.508.216.3.43.597.614.883.653-1.473 2.097-2.8 3.134-4.339 1.167-.3 2.342-.615 3.51-.906.695-1.522 1.891-2.808 3.104-4.112 2.473-2.66 5.017-5.395 3.538-10.354ZM9.791 22.273c.636.996.97 1.854-.27 2.283-.237-.858-.049-1.586.27-2.282Zm-6.433 54.04C1.71 76.046-.167 74.33.012 71.862c.36-4.533 14.29-13.77 20.477-13.405 8.006.437 8.39 7.844 11.556 11.786-.269 5.342-3.525 8.361-7.026 8.378-6.876.084-13.803-1.036-20.647-2.144-.339-.054-.676-.11-1.014-.163Z" clip-rule="evenodd" fill="#C99B67" fill-rule="evenodd"/></svg>