<svg width="485.109955" height="428.746948" viewBox="0 0 485.11 428.747" fill="none" xmlns="http://www.w3.org/2000/svg" xmlns:xlink="http://www.w3.org/1999/xlink">
	<desc>
			Created with Pixso.
	</desc>
	<defs/>
	<path id="leaves-left" d="M385.61 172.49C373.13 168.52 360.12 167.58 347.19 166.19C351.31 165.28 355.77 164.07 359.97 163.6C363.83 163.17 366.13 164.77 369.76 166.03C376.25 168.3 383.5 171.05 389.14 173.68C387.97 173.27 386.79 172.87 385.61 172.49ZM367.83 177.46C354.14 174.9 340.13 174.34 326.46 171.67C329.85 170.63 331.77 169.73 335.37 170.07C340.72 170.58 346.14 171.68 351.37 172.84C358.97 174.53 366.63 176.36 374.03 178.76C371.97 178.28 369.91 177.85 367.83 177.46ZM368.49 180.13C367.56 180.51 364.27 179.22 363.21 179C364.23 179.19 367.89 180.37 368.49 180.13ZM341.23 179.85C330.52 179.18 319.68 178.84 308.95 178.9C310.87 178.18 312.71 177.28 314.59 176.43C319.72 174.13 320.62 174.5 325.74 176.01C332.35 177.96 339.12 179.07 345.9 180.2C344.34 180.06 342.79 179.94 341.23 179.85L341.23 179.85ZM328.73 186.03C313.94 187.15 299.35 188.94 284.59 190.59C287.74 189.32 290.77 187.7 293.78 186.14C298.43 183.72 302 184.06 307.18 184.06C312.68 184.06 318.09 184.7 323.56 185.33C324.91 185.48 330.2 185.91 328.73 186.03ZM305.94 174.79C313.84 167.12 322.9 159.98 332.18 154C338.07 150.21 344.48 145.93 351.4 149.22C339.95 149.69 324.99 160.08 318.22 168.98C317.89 169.4 317.4 169.69 317.06 170.1C315.78 171.65 317.17 171.81 316.3 172.76C316.2 172.88 311.58 174.76 312.19 174.51C309.05 175.81 305.84 176.89 302.7 178.17C303.76 177.02 304.84 175.9 305.94 174.79L305.94 174.79ZM349.99 156.42C342.22 162.92 333.79 166.38 324.43 169.64C332.98 164.14 341.55 159.64 350.94 155.7C350.63 155.94 350.31 156.18 349.99 156.42L349.99 156.42ZM359.66 158.65C361.28 158.13 362.01 158.26 362.37 160.19C358.18 160.03 356.19 160.6 352.24 161.56C354.64 160.42 357.12 159.44 359.66 158.65ZM364.8 159.7C364.51 159.17 364.38 158.16 364.18 157.64C367.29 157.59 369.93 158.25 372.57 159.88C371.7 159.89 365.02 160.66 364.8 159.7L364.8 159.7ZM238.77 231.85C261.49 229.04 283.28 228.31 306.1 230.53C288.91 232.04 271.65 235.49 254.73 238.85C241.15 241.54 227.37 242.99 213.75 245.43C216.28 242.8 218.64 240.02 221.21 237.43C225.67 232.93 232.36 232.65 238.77 231.85ZM316.88 238.54C320.99 238.12 325.08 237.61 329.16 237.01C333.59 236.36 340.67 233.43 345.13 234.31C320.76 241.55 294.44 244.88 269.39 248.96C258.98 250.65 248.38 253.13 238.3 256.27C223.73 260.81 207.31 260.78 193.41 267.15C197.66 262.7 202.32 256.33 207.16 252.71C210.68 250.07 216.52 249.85 220.7 249.3C227.6 248.39 234.52 247.68 241.44 246.94C266.6 244.23 291.71 241.17 316.88 238.54ZM189.47 262.66C187.43 264.91 185.44 267.21 183.51 269.56C187.02 253.1 186.86 235.74 188.84 219.03C189.95 209.58 191 200.03 192.51 190.64C193.83 182.35 194.19 171.06 198.63 163.9C201.95 166.98 204.4 170.25 203.74 174.73C202.89 180.49 200.41 186.02 199.26 191.73C197.96 198.15 197.09 204.68 196.29 211.18C195.05 221.17 194.77 231.34 195.29 241.39C195.44 244.21 195.62 247.04 195.84 249.85C195.93 251.09 196.57 253.18 196.3 254.33C195.64 257.16 191.61 260.29 189.47 262.66ZM213.98 194.13C215.92 184.88 217.11 174.14 221.16 165.47C223.41 160.65 225.57 158.93 228.93 164.14C231.33 167.85 227.56 176 226.38 180.67C223.01 193.92 221.23 207.51 219 220.97C218.42 224.5 218.25 227.99 217.87 231.53C217.56 234.46 217.64 234.28 215.96 236.49C214.87 237.91 213.16 239.12 211.85 240.37C208.42 243.65 204.95 246.88 201.55 250.2C206.72 231.73 210.04 212.88 213.98 194.13ZM468 236.14C464.87 231.98 460.9 228.23 456.84 225.01C451.22 220.55 444.33 217.94 438.72 213.66C433.99 210.05 430.09 205.24 425.26 201.59C417.6 195.78 409.71 190.96 400.73 187.47C412.16 191.37 423.13 196.07 432.29 204.17C433.06 204.85 439.77 213.44 441.16 212.62C442.11 212.07 438.09 205.85 437.25 204.4C431.06 193.76 418.35 186.94 408.32 180.1C396.98 172.38 384.6 168.05 371.68 163.78C383.42 164.43 393.3 167.44 403.13 174.04C407.97 177.29 412.44 181.08 417.43 184.09C421.85 186.77 426.09 189.23 429.9 192.82C434.17 196.83 437.6 201.21 440.44 206.35C441.5 208.28 446.71 219.97 446.85 212.55C446.91 208.89 442.29 203.67 440.42 201.03C437.27 196.57 433.61 192.56 429.78 188.68C423.26 182.08 417.04 175.24 409.31 170.04C404.91 167.08 400.31 164.73 395.28 163.04C391.39 161.73 387.4 160.79 383.32 160.33C379.45 159.89 379.08 159.94 376 157.94C373.35 156.22 371.09 154.38 368.13 153.15C365.11 151.9 362.54 151.72 360.29 150.01C357.64 147.99 356.61 145.62 353.19 144.36C350.05 143.2 346.83 143.45 343.55 143.72C332.71 144.58 321.69 147.33 312.72 153.75C304.79 159.42 299.39 168.47 295.56 177.29C293.44 182.16 294.88 181.98 289.2 184.78C283.22 187.72 277.28 190.61 271.46 193.9C281.05 181.98 289.38 168.79 299.89 157.62C305.51 151.65 311.03 145.59 316.65 139.63C318.31 137.87 331.41 125.22 324.05 125.67C322.35 125.77 319.79 128.04 318.22 128.79C315.1 130.29 312 131.62 309.12 133.57C304.12 136.97 300.04 141.19 295.95 145.58C285.35 156.96 275.81 169.12 270.92 184.06C269.76 187.59 269.34 191.57 267.52 194.82C266.25 197.11 264.75 197.9 262.15 199.59C257.7 202.48 253.38 205.45 249.17 208.69C259.94 192.73 266.89 174.88 275.38 157.7C286.29 135.61 291.29 110.82 300.47 88C302.25 83.57 304.42 78.7 307.41 74.93C308.32 73.79 311.19 72.07 311.44 70.63C312.11 66.81 309.53 67.84 307.63 68.93C302.99 71.62 298.48 77.67 295.3 81.76C290.68 87.7 286 94.14 282 100.53C268.22 122.57 259.08 147.58 251.49 172.32C247.91 183.96 244.23 195.78 242.47 207.85C241.62 213.67 242.59 213.83 237.72 217.82C232.64 221.98 227.78 226.4 222.74 230.61C227.33 221.17 230.07 209.47 233.39 199.46C236.86 188.97 240.81 178.64 244.34 168.17C250.08 151.13 254.37 133.68 258.51 116.2C260.7 106.9 262.76 97.6 264.64 88.24C267.06 76.21 269.52 62.31 274.91 51.22C275.71 49.57 278.98 41.9 274.25 44.54C272.09 45.75 269.52 53.65 268.41 55.78C262.15 67.88 256.87 80.16 252.16 92.94C243.8 115.6 237.94 138.81 231.32 161.98C228.01 157.46 221.13 152.48 215.19 154.41C209.86 156.13 207.24 163.73 205.56 168.48C205.37 165.19 201.33 159.06 198.19 158.85C196.4 158.73 193.32 160.42 191.82 161.13C188.12 162.88 183.92 165.09 181.62 168.53C176.89 175.59 177.79 186.67 176.95 194.83C174.45 219.2 174.89 242.72 177.65 266.99C178.28 272.54 179.04 275.11 175.88 279.49C172.27 284.49 168.79 289.41 165.24 294.1C166.38 291.93 165.35 285.28 165.34 282.96C165.3 276.75 165.36 270.6 165.69 264.39C166.35 251.61 165.66 238.4 165.02 225.62C163.69 199.27 163.81 173.26 164.7 146.91C164.89 141.36 164.76 135.85 164.73 130.3C164.71 128.01 165.47 122.4 161.83 123.74C160.78 124.13 160 128.23 159.69 129.26C156.86 138.84 155.97 149.2 154.67 159.04C153.49 167.98 152.41 176.95 151.67 185.94C150.23 203.21 150.71 219.98 150.79 237.28C150.87 251.53 152.41 267.02 155.05 280.17C156.28 286.33 158.43 293 159.05 299.21C159.43 302.95 157.24 304.34 154.73 307.74C152.18 311.17 149.67 314.64 147.24 318.16C147.48 312.76 145.94 307.19 145.58 301.79C145.28 297.28 144.99 292.8 144.58 288.3C144.26 284.75 143.96 281.2 143.64 277.65C142.02 259.38 140.44 241.15 137.45 223.05C132.86 195.26 127.84 166.69 128.03 138.41C128.07 133.02 128.24 127.62 128.3 122.23C128.35 118.16 127.98 114.12 127.95 110.06C127.94 107.99 128.88 103.98 128.19 101.92C126.19 95.94 124.46 102.62 124.41 105.36C124.38 106.81 124.29 108.25 124.27 109.69C124.13 118.77 123.35 127.73 122.9 136.79C122.26 149.87 122.84 162.88 123.27 175.95C123.74 190.19 123.39 204.52 124.92 218.71C126.89 236.99 130.85 255.17 133.33 273.4C134.41 281.35 135.91 289.2 136.73 297.18C137.49 304.63 140.14 311.96 141.75 318.85L141.74 318.32C142.36 321.25 143.34 322.72 142.46 325.4C141.83 327.29 140.11 329.27 139.08 331.01C136.88 334.7 134.77 338.43 132.66 342.16C134.53 332.68 131.99 320.71 129.99 311.39C127.77 301.07 125.06 290.51 121.9 280.45C119.44 272.63 117.4 264.95 116.66 256.8C115.67 245.96 112.72 235.54 111.13 224.79C109.64 214.65 107.12 204.61 104.97 194.57C104.49 192.31 102.33 181.5 98.82 186.38C97.95 187.58 99.01 190.78 99.15 192.02C99.48 195.1 99.69 198.13 99.83 201.22C100.73 220.85 104.84 240.78 108.06 260.12C110.12 272.48 112.3 284.88 115.31 297.05C117.65 306.52 118.92 316.36 121.52 325.69C122.76 330.17 124.03 334.75 126.02 338.96C127.76 342.62 129.5 343.64 128.89 347.58C128.02 353.22 123.22 359.07 121.05 364.53C119.28 368.99 117.47 373.46 115.78 377.96C113.43 384.26 111.22 390.66 109.15 397.06C107.95 400.76 105.62 405.54 105.4 409.31C105.07 415.03 108.31 413.39 110.01 409.57C111.15 406.99 112.06 404.22 113.14 401.6C121.04 382.41 128.27 361.83 140.06 344.61C144.97 337.42 158.57 335.69 166.54 333.18C185.73 327.14 206.49 326.35 226.4 324.14C242.45 322.37 258.24 320.73 273.96 316.78C276.26 316.21 318.15 303.87 317.1 301.72C317.69 302.93 271.27 313.26 267.55 313.57C255.89 314.51 244.27 314.77 232.59 315.26C203.37 316.5 174.62 317.2 148.07 331.01C151.42 325.74 155.43 315.79 161.31 313.75C172.65 309.81 184.59 307.27 196.01 303.43C207.89 299.44 220.08 296.77 232.02 293.08C243.95 289.39 255.85 285.57 267.96 282.46C280.13 279.35 292.7 276.09 305.35 276.5C310.22 276.65 315.1 277.08 319.95 277.54C321.78 277.71 336.35 280.41 328.47 277.06C323.37 274.89 316.69 274.73 311.22 273.93C304.96 273.02 298.95 272.21 292.61 272.26C278.82 272.37 264.96 275.6 251.63 278.8C235.67 282.63 219.06 286.43 203.83 292.59C189.87 298.23 175.84 303.65 161.88 309.23C164.41 305.34 167.11 301.57 169.76 297.75C171.04 295.9 172.39 292.88 174.21 291.62C176.99 289.68 182.84 289.18 186.07 288.1C199.06 283.78 212.11 278.71 225.42 275.5C246.82 270.33 268.74 267.12 290.27 262.52C302.84 259.84 316.15 257.48 329 257.71C333.83 257.79 338.67 257.62 343.42 258.64C345.1 259 347.21 259.93 348.94 260.12C354.12 260.7 350.28 258.22 347.14 257.13C322.26 248.51 294.84 255.4 269.76 258.91C253.17 261.22 236.8 263.58 220.97 269.29C206.37 274.54 192.43 281.55 177.59 286.17C181.48 280.64 184.95 274.92 191.16 271.88C198.03 268.52 205.28 267.06 212.78 265.78C228.38 263.13 243.87 259.72 259.51 257.41C273.89 255.29 288.24 253.4 302.49 250.5C316.36 247.68 330.15 246.03 343.39 240.69C347.59 239 352.67 236.06 357.15 235.81C362.95 235.48 369.97 237.22 375.66 238.08C389.52 240.17 403.9 242.33 416.71 248.2C429.28 253.95 437.81 263 447.43 272.46C450.46 275.44 453.45 278.47 456.47 281.47C457.14 282.13 461.16 287.14 461.99 287.21C467.11 287.59 457.44 277.43 455.78 275.35C444.25 260.97 431.78 248.98 414.82 241.14C400.37 234.46 385.26 230.12 369.5 227.9C369.54 225.05 381.15 224.91 381.47 221.96C381.89 218.02 373.76 221.96 372.15 222.44C369.09 223.36 366.12 224.51 363.05 225.38C355.99 227.37 348.19 224.92 341.02 224C332.38 222.89 323.62 222.17 314.93 221.64C286.16 219.91 258.56 220.86 230.61 228.57C235.63 224.18 240.86 220.01 246.16 215.96C248.22 214.39 249.79 212.95 252.13 212.21C256.08 210.96 260.77 211.52 264.88 211.12C281.16 209.53 297.35 207.75 313.72 207.25C340.64 206.42 368.72 211.25 394.25 219.81C406.71 223.99 418.93 228.05 429.75 235.74C432.25 237.52 434.48 239.56 436.76 241.62C437.7 242.47 443.44 248.64 443.73 248.61C446.23 248.35 434.67 235.56 432.99 233.93C410.43 212 381.16 207.01 351.26 202.61C320 198 288.63 200.45 257.83 207.4C263.98 203.56 270.02 196.99 276.93 194.76C282.17 193.06 288.83 193.38 294.13 192.84C309.52 191.26 325.65 193.94 341.07 195.03C358.49 196.27 375.42 198.5 392.26 203.14C400.88 205.52 409.27 208.03 417.68 211.11C424.34 213.56 429.78 215.06 435.17 219.53C437.35 221.35 443.82 226.18 447.32 229.46C448.75 230.8 450.22 233.63 451.84 234.3C457.85 236.81 449.87 227.02 448.56 225.32C453.34 228.17 457.8 231.48 462.04 235C462.88 235.7 463.69 236.23 464.54 236.87C465.53 237.62 466.06 239.81 467.76 239.08C469.15 238.48 468.66 237.05 468 236.14Z" fill="#012A32" fill-opacity="1.000000" fill-rule="evenodd"/>
</svg>
