<svg width="312.586182" height="286.223389" viewBox="0 0 312.586 286.223" fill="none" xmlns="http://www.w3.org/2000/svg" xmlns:xlink="http://www.w3.org/1999/xlink">
	<desc>
			Created with Pixso.
	</desc>
	<defs/>
	<path d="M236.02 135.99C238.73 135.97 241.51 138.67 243.46 140.25C238.38 136.85 230.33 136.98 224.5 136.16C218.83 135.36 213.2 134.16 207.72 132.44C207.6 132.41 195.46 128.43 199.58 126.15C210.95 119.77 225.03 136.56 236.02 135.99ZM157.11 83.67C159.25 88.91 168.71 114.58 159.51 116.41C152.19 117.87 145.92 102.25 145.52 97.03C144.87 88.34 145.27 79.67 144.06 70.99C149.15 74.89 154.57 77.38 157.11 83.67ZM67.73 242.4C64.22 246.73 60.68 251.07 56.86 255.13C60.87 250.16 64.69 245.17 69.2 240.63L67.73 242.4L67.73 242.4ZM303.57 42.24C301.65 39.76 294.13 42.79 291.97 43.28C286.07 44.61 279.68 45.8 274.28 43.46C269.65 42.3 277.14 34.27 278.32 31.19C279.14 29.04 280.86 23.58 279.43 21.38C276.37 16.68 269.97 22.19 266.79 24.37C262.12 27.55 260.19 29.61 261 23.77C261.87 17.49 268.45 6.91 261.79 1.34C256.12 -3.4 247.3 5.6 243.87 9.22C237.41 16.02 234.41 23.72 233.03 32.89C232.71 35.02 230.23 47.66 228.06 45.43C223.73 39.86 227.16 31.69 223.74 25.69C221.79 22.28 219.11 20.59 217.48 16.75C215.87 12.96 214.23 6.17 209.01 5.76C205.7 5.5 203.51 8.24 202.96 10.98C201.22 17.39 202.53 23.16 202.42 29.65C202.33 34.41 199.21 37.98 200.37 42.87C202.24 50.32 204.69 58.13 205.95 65.89C206.34 68.32 207.69 79.4 202.92 77.23C200.24 76.01 200.52 65.65 200.34 63.83C199.9 59.48 199.96 55.14 197.35 51.37C195.84 49.21 193.35 48.38 192.2 46.68C188.77 41.67 189 33.17 186.18 27.66C183.64 22.72 176.92 10.74 171.02 9.56C162.94 7.96 165.98 18.96 166.51 23.78C167.09 29.12 167.99 33.99 167.51 39.2C167.1 43.8 167.43 47.53 169.19 52C172.45 60.25 177.36 67.37 181.48 74.89C181.47 74.86 181.46 74.83 181.44 74.81C183.76 79.22 185.68 84.7 185.47 89.8C185.1 98.36 182.14 94 179.54 88.18C175.62 79.4 173.06 70.01 169.19 61.23C167.8 58.1 166.15 54.93 163.27 52.89C161.34 51.52 158.95 51.86 157.45 51.03C152.23 48.15 133.02 15.59 124.95 25.3C120.6 30.54 131.41 41.74 133.69 45.66C137.34 51.92 141.2 56.24 140.83 63.67C138.71 61.71 135.8 62.73 133.87 61.17C131.57 59.31 130.92 55.37 129.84 52.79C126.88 45.7 123.4 38.72 118.76 32.61C104.62 13.95 107 42.16 108.4 51.47C108.67 53.26 108.99 55.54 109.26 57.58C109.99 62.91 108.75 63.78 107.98 68.5C106.69 76.52 116.15 87.11 121.04 92.86C122.54 94.63 145.79 123.44 135.6 123.2C130.46 123.08 121.8 108.47 119.4 103.98C115.71 97.08 113.18 83.3 105.52 79.72C103.11 78.6 101.13 79.78 98.9 78.9C93.69 76.83 90.15 68.68 86.39 64.86C78.72 57.1 69.3 58.18 75.72 70.77C78.26 75.76 79.52 79.08 81.08 84.51C82.85 90.7 88.44 93.89 91.01 99.31C93.14 103.79 89.83 101.39 90.02 106.73C90.18 111.15 97.05 116 100.29 118.46C104.78 121.88 125.02 133.35 121.05 140.27C117.43 146.57 105.63 137.07 102.48 134.17C94.58 126.94 91.44 117.17 87 107.8C84.83 103.24 82.36 97.69 78.82 94C75.71 90.76 72.18 90.32 68.33 88.64C63.85 86.69 44.11 76.31 45.02 88.86C45.63 97.29 57.38 101.38 58.85 109.43C53.56 107.07 42.5 96.37 36.2 102C30.12 107.43 42.18 119.16 45.86 123.59C48.11 126.31 63.55 138.55 63.29 143.13C63.02 147.92 57.48 146.21 54.28 145.57C48.8 144.49 -0.22 132.42 0 142.41C0.16 150.16 19.01 147.53 21.45 151.93C22.35 153.54 20.4 154.33 20.05 156.05C18.79 162.37 20.88 164.89 27.52 165.59C21.22 180.68 42.07 172.67 49.08 170.27C53.86 168.62 74.18 161.19 75.58 171.39C76.06 174.82 70.32 180.22 69.34 183.57C67.46 190.04 72.21 194.01 78.45 191.82C82.74 190.32 86.64 186.52 89.4 182.99C90.98 180.97 93.78 174.32 96.42 173.86C96.16 184.81 102.54 179.15 108.37 174.44C112.73 170.92 123.58 161.35 130.06 165.16C124.99 172.2 118.06 177.8 112.52 184.45C106.46 191.73 100.15 198.53 93.15 205.41C79.89 218.45 66.6 232.68 54.93 247.1C49.22 254.15 43.04 260.87 36.92 267.57C34.71 269.98 20.85 280.82 25.71 285.22C32.28 291.17 43.69 268.66 48.38 266.05C70.68 240.69 94.45 216.6 116.07 190.75C115.18 193.67 116.15 201.89 120.56 201.75C119.52 204.15 116.41 207.8 117.13 210.55C118.74 216.62 121.19 211.15 123.47 211.5C127.36 212.11 124.17 219.13 123.45 221.99C120.09 235.32 119.45 249.88 118.59 263.58C118.12 271.1 124.44 291.93 135.12 283.01C140.45 278.57 141 267.43 141.34 261.2C141.55 257.27 139.76 246.35 142.49 242.95C147 245.34 152.42 256.07 155.32 259.92C161.45 268.06 166.82 273.23 177.47 273.92C202.77 275.58 172.13 246.84 175.18 244.91C177.33 243.56 192.15 256.06 194.11 257.55C198.45 260.86 211.68 268.93 216.54 262.16C220.61 256.48 210.19 246.97 207.1 243.31C204.51 240.25 202.57 236.05 199.32 232.96C196.65 230.42 193.08 228.97 190.43 226.55C187.68 224.03 187.52 220.41 184.45 217.53C181.01 214.3 176.34 211.6 172.55 208.65C166.22 203.73 157.26 197.34 156.52 188.41C170.98 190.2 180.86 205.95 190.73 215.09C195.67 219.67 201.48 225.54 208.63 223.98C211.5 223.35 208.43 222.79 212.27 222.53C213.14 222.47 214.31 222.97 215.14 223.17C221.14 224.58 226.88 226.77 232.82 228.33C236.51 229.3 248.34 233.62 251.64 230.07C257.64 223.64 231.76 207.47 227.19 203.89C223.73 201.18 219.56 198.86 216.3 196.05C213.3 193.47 212.29 190.03 208.26 188.12C203.04 185.66 196.97 184.82 191.53 182.97C184.21 180.49 178.11 176.84 172.02 172.16C169.5 170.22 163.37 166.04 164.69 162.53C166.83 156.89 176.43 164.1 179.16 165.64C187.22 170.22 194.76 177.51 204.73 180.52C215.04 183.63 220.33 193.77 229.83 198.3C233.26 199.94 235.19 200.09 238.81 199.43C242.83 198.69 244.74 198.22 249.46 199.43C253.75 200.52 274.42 207.23 272.85 197.59C272.34 194.46 267.8 193.17 265.5 191.89C260.44 189.07 255.52 185.96 250.39 183.27C247.13 181.56 242.99 180.38 240.33 177.72C237.8 175.21 237.23 172.64 233.59 171.01C228.69 168.8 221.33 169.15 217.04 166.17C212.94 163.32 209.71 159.23 205.02 156.61C201.29 154.52 180.16 146.69 180.74 143.2C181.91 136.1 205.71 149.67 207.54 150.67C219.22 157.01 230.68 165.48 242.67 171.45C246.7 173.46 249.82 172.71 253.53 173.26C258.47 173.98 263.62 177.37 268.63 178.54C272.62 179.48 283.06 181.92 281.02 174.97C279.55 169.95 270 165.62 266.01 162.58C261.49 159.14 257.29 155.43 252.4 152.52C251.35 151.89 249.03 151.11 248.26 150.24C246.13 147.84 247.54 144.19 244.97 141.5C247.66 144.08 250.32 145.42 253.97 145.46C254.92 145.47 256.76 144.45 257.96 144.3C261.57 143.85 265.82 145.06 269.44 145.47C274.52 146.04 300.11 145.31 286.93 136.34C281.29 132.5 274.96 129.59 268.68 127.02C263.75 125 257.29 123.51 253.13 120.12C248.83 116.6 248.04 114.78 241.77 113.85C235.34 112.9 226.26 113.09 221.2 108.44C210.9 98.99 245.22 105.33 248.87 106.26C256.24 108.12 264.21 109.58 271.75 107.91C280.15 106.06 287.11 102.07 295.95 101.67C299.89 101.49 312.8 101.89 312.58 95.56C312.36 89.33 297.91 88.91 294.08 88.14C290.12 87.35 285.62 87.08 281.82 85.92C278.36 84.87 275.73 82.64 272.36 81.34C262.82 77.65 254.72 82.36 245.21 81.91C240.18 81.68 237.79 79.7 243.04 76.12C245.87 74.18 250.42 74 253.76 73.06C258.78 71.65 263.72 69.85 268.68 68.22C275.37 66.02 312.94 54.24 303.57 42.24Z" fill="#89B99A" fill-opacity="1.000000" fill-rule="evenodd"/>
</svg>
