<svg width="545.800415" height="591.195557" viewBox="0 0 545.8 591.196" fill="none" xmlns="http://www.w3.org/2000/svg" xmlns:xlink="http://www.w3.org/1999/xlink">
	<desc>
			Created with Pixso.
	</desc>
	<defs/>
	<path d="M227.58 361.18C226.46 363.04 227.19 366.05 227.48 368.04C227.22 363.16 230.58 357.66 232.39 353.31C234.15 349.08 235.62 344.71 236.66 340.24C236.69 340.14 238.89 330.16 235.65 332.06C226.63 337.31 232.45 353.84 227.58 361.18ZM223.7 285.53C226.44 289.14 240.25 306.09 245.26 300.49C249.24 296.04 241.05 285.36 237.61 282.97C231.9 278.99 225.77 275.74 220.29 271.38C220.9 276.48 220.4 281.23 223.7 285.53ZM369.35 288.41C373.77 287.75 378.19 287.06 382.55 286.08C377.49 286.83 372.5 287.44 367.54 288.7L369.36 288.41L369.35 288.41ZM135.54 369.66C134.62 367.33 139.77 363.38 140.98 362.09C144.3 358.56 147.72 354.63 148.31 349.96C149.39 346.3 140.81 348.2 138.22 347.77C136.4 347.46 131.95 346.42 131.02 344.55C129.02 340.53 135.42 338.36 138.22 337.04C142.31 335.12 144.51 334.63 140.16 332.81C135.49 330.86 125.52 331.1 124.4 324.25C123.45 318.41 133.24 315.99 137.12 315.09C144.44 313.4 150.96 314.46 157.83 317.24C159.43 317.88 169.14 321.31 168.49 318.91C166.42 313.66 159.39 312.7 156.66 307.91C155.1 305.18 155.03 302.65 153.05 299.96C151.1 297.31 147.09 293.43 148.94 289.66C150.11 287.27 152.89 286.87 154.99 287.61C160.11 289.01 163.55 292.26 168.07 294.82C171.37 296.69 175.1 295.99 178 298.78C182.36 303.09 186.75 307.95 191.58 311.98C193.09 313.24 200.16 318.66 200.61 314.5C200.87 312.15 193.62 308.14 192.44 307.27C189.63 305.2 186.61 303.48 185.08 300.15C184.21 298.23 184.65 296.18 183.95 294.69C181.89 290.29 175.95 287 173.31 282.81C170.94 279.06 165.43 269.56 167.03 265.01C169.21 258.79 175.54 265.36 178.65 267.68C182.09 270.25 185.07 272.85 188.85 274.64C192.19 276.22 194.62 277.96 196.98 280.99C201.33 286.59 204.24 292.87 207.74 298.76C207.72 298.74 207.7 298.73 207.69 298.71C209.79 302.09 212.77 305.64 216.37 307.57C222.41 310.8 220.62 306.98 217.67 302.83C213.22 296.56 207.8 290.98 203.34 284.74C201.75 282.52 200.24 280.09 200.01 277.27C199.85 275.39 201.05 273.88 201.09 272.51C201.24 267.74 186.65 241.27 196.62 239.65C202 238.78 205.3 250.79 207.07 253.95C209.9 259 211.3 263.42 216.57 266.19C216.07 263.93 217.97 262.34 217.68 260.37C217.34 258.03 214.88 255.98 213.55 254.19C209.88 249.27 206.49 244.03 204.17 238.36C197.08 221.03 215.53 234.13 221.37 238.88C222.49 239.79 223.94 240.93 225.22 241.95C228.6 244.62 229.7 244.11 233.26 245.5C239.31 247.87 242.75 258.69 244.71 264.4C245.32 266.16 255.69 293.89 259.67 286.76C261.68 283.17 255.15 271.26 253.04 267.79C249.79 262.44 241.34 255.1 241.99 248.37C242.2 246.25 243.82 245.36 244.12 243.47C244.82 239.04 240.65 233.29 239.55 229.14C237.33 220.7 241.91 214.65 247.97 224.19C250.36 227.96 252.14 230.18 255.24 233.46C258.78 237.2 258.69 242.35 261.38 246.33C263.6 249.61 263.29 246.36 266.89 248.66C269.87 250.57 270.41 257.27 270.79 260.5C271.31 264.98 270.97 283.59 277.34 283.67C283.16 283.74 281.42 271.74 280.71 268.39C278.95 260.01 273.5 253.87 268.86 247.01C266.6 243.66 263.79 239.7 262.69 235.76C261.73 232.3 262.86 229.69 263.27 226.36C263.76 222.48 264.65 204.65 272.92 210.37C278.47 214.22 276.5 223.98 281.44 228.26C281.98 223.66 279.11 211.69 285.55 209.63C291.76 207.65 294.93 220.73 296.48 225.06C297.44 227.72 299.57 243.34 302.83 245.02C306.24 246.78 307.32 242.26 308.18 239.8C309.66 235.58 321.32 196.88 328.11 201.09C333.38 204.36 323.89 216.29 325.93 219.75C326.67 221.02 328.01 220 329.34 220.46C334.2 222.16 335.08 224.63 332.86 229.48C345.81 231.27 331.81 242.39 327.3 246.25C324.22 248.87 310.83 259.86 317.28 264.97C319.45 266.69 325.5 264.93 328.21 265.62C333.43 266.94 334.22 271.83 330.18 275.25C327.39 277.59 323.19 278.74 319.64 279.21C317.6 279.48 311.89 278.7 310.49 280.34C318.14 284.6 311.64 286.71 306.03 288.81C301.83 290.39 290.82 293.98 290.81 299.99C297.72 299.35 304.4 296.85 311.23 295.74C318.71 294.51 325.96 292.93 333.54 290.9C347.92 287.06 363.12 283.67 377.8 281.49C384.98 280.42 392.12 278.89 399.23 277.39C401.79 276.85 414.89 271.7 415.94 276.83C417.36 283.78 397.22 282.5 393.52 284.68C366.98 289.74 340.72 296.34 314.12 300.74C316.49 301.31 321.76 305.33 319.86 308.31C321.94 308.57 325.72 307.9 327.31 309.52C330.84 313.09 326.07 312.56 325.39 314.28C324.23 317.21 330.36 317.85 332.62 318.52C343.16 321.62 353.44 327.1 363.23 332.07C368.6 334.8 380.36 347.61 369.87 351.36C364.64 353.22 356.75 349.08 352.32 346.78C349.53 345.33 342.75 339.66 339.29 340.16C339.1 344.24 344.28 352.34 345.75 355.9C348.85 363.43 350.23 369.23 346.37 376.86C337.2 394.97 329.9 362.17 327.33 363.49C325.52 364.42 328.09 379.72 328.32 381.67C328.83 386.01 329 398.41 322.36 399.01C316.79 399.51 314.49 388.46 313.23 384.85C312.18 381.81 310.07 378.77 309.27 375.28C308.61 372.41 309.07 369.35 308.48 366.55C307.87 363.63 305.44 362.05 304.71 358.76C303.88 355.08 303.93 350.76 303.44 346.95C302.63 340.59 301.88 331.82 296.04 327.68C291.38 338.37 298.2 351.58 300.47 362.1C301.61 367.36 303.29 373.75 299.3 378.05C297.7 379.77 298.57 377.43 296.82 379.97C296.43 380.54 296.3 381.55 296.09 382.21C294.62 386.91 293.79 391.76 292.45 396.49C291.61 399.43 289.77 409.33 285.98 410.17C279.11 411.69 278.52 387.28 277.92 382.68C277.46 379.19 277.56 375.38 276.95 371.98C276.4 368.87 274.44 366.78 274.77 363.22C275.2 358.63 277.09 354.1 278.04 349.6C279.31 343.54 279.28 337.86 278.54 331.76C278.23 329.23 277.85 323.31 274.89 322.8C270.14 321.97 271.19 331.53 271.15 334.03C271.01 341.44 272.96 349.61 270.97 357.7C268.92 366.07 273.74 373.84 272.99 382.23C272.72 385.26 272.04 386.65 270.11 388.87C267.97 391.35 266.87 392.47 265.77 396.22C264.78 399.61 260.98 416.59 254.99 411.59C253.04 409.97 254 406.32 254.06 404.22C254.18 399.58 254.04 394.93 254.27 390.3C254.42 387.35 255.3 384.02 254.55 381.1C253.85 378.34 252.32 376.91 252.67 373.73C253.15 369.46 256.39 364.53 256.08 360.36C255.79 356.38 254.29 352.49 254.39 348.19C254.47 344.77 257.69 327.03 255.06 326.01C249.69 323.93 249.34 345.85 249.28 347.51C248.89 358.14 250.05 369.48 249.29 380.17C249.03 383.76 247.24 385.61 246.1 388.4C244.59 392.09 244.83 397.02 243.6 400.94C242.61 404.08 240.04 412.26 236.09 408.04C233.23 404.98 234.14 396.64 233.67 392.65C233.15 388.15 232.3 383.74 232.29 379.19C232.29 378.21 232.69 376.29 232.41 375.41C231.63 372.96 228.54 372.45 227.72 369.59C228.41 372.5 228.25 374.87 226.79 377.4C226.41 378.06 224.96 378.91 224.37 379.68C222.59 381.99 221.69 385.41 220.5 388.07C218.82 391.8 207.9 409.15 207.09 396.42C206.74 390.97 207.32 385.42 208.11 380.05C208.72 375.83 210.33 370.77 209.69 366.53C209.02 362.13 208.09 360.85 210 356.16C211.96 351.33 215.79 345.15 214.65 339.78C212.34 328.83 202.73 355.07 201.88 357.96C200.16 363.8 197.92 369.88 193.71 374.4C189.01 379.44 183.43 382.62 179.55 388.55C177.82 391.19 172.84 400.26 168.58 397.53C164.38 394.85 169.97 384.72 171 381.77C172.07 378.72 173.72 375.5 174.47 372.41C175.15 369.6 174.69 366.88 175.16 364.03C176.51 355.96 183.05 352.28 186.62 345.55C188.5 341.99 188.12 339.54 183.51 341.7C181.02 342.86 179.05 345.92 177.04 347.84C174.02 350.73 170.77 353.41 167.63 356.17C163.39 359.88 139.99 380.99 135.54 369.66Z" fill="#89B99A" fill-opacity="1.000000" fill-rule="evenodd"/>
	<path d="M414.91 431.17C397.27 400.17 373.6 371.46 350.84 344.11C357.56 345.96 366.44 344.52 372.57 341.47C379.46 338.04 382.95 332.08 385.74 325.19C386.13 324.21 388.72 314.14 390.61 314.68C394.09 315.69 395.1 337.89 395.47 340.61C396.81 350.3 398.88 359.79 401.05 369.33C405.73 389.88 410.82 410.49 414.91 431.17ZM339.56 325.93C334.64 326.27 330.93 319.31 327.75 315.72C333.07 315.51 355.73 309.24 358.44 314.66C362.85 323.46 344.05 325.6 339.56 325.93ZM228.95 158.11C228.93 161.04 228.92 172.38 224.34 168.86C221.24 166.48 219.55 155.82 218.59 152.55C216.63 145.89 213.62 137.68 213.96 130.65C214.62 117.35 223.34 126.43 225.33 133.52C227.53 141.35 228.98 149.95 228.95 158.11ZM263.95 216.4C269.74 212.77 267.42 219.54 265.24 222.77C259.12 231.85 257.77 221.33 263.95 216.4ZM250.91 185.28C249.69 178.68 250.3 169.72 252.18 163.41C253.66 158.45 258.4 153.83 261.3 160.17C263.71 165.43 259.15 179.25 256.72 184.42C254.74 188.63 252.02 192.2 250.91 185.28ZM225.76 187.3C226.85 199.97 215.82 204.61 216.18 190.14C216.4 181.29 223.83 174.76 225.76 187.3ZM249.08 263.65C249.42 268.9 238.37 287.29 237.58 277.14C237.35 274.25 248.49 258.91 249.08 263.65ZM216.69 245.92C212.91 248.37 202.52 256.55 198.6 254.9C192.32 252.25 199.49 244.83 202.28 242.92C205.32 240.83 213.68 235.72 217.88 236.36C225.58 237.54 220.58 243.15 216.69 245.92ZM159.93 170.17C150.56 174.16 147.26 163 145.24 156.34C143.92 151.98 139.24 142.86 144.15 139.75C152.98 134.15 162.83 162.94 159.93 170.17ZM191 171.48C189.57 167.01 188.45 162.44 187.05 157.96C186.22 155.3 181.85 145.92 182.38 143.69C184.04 136.61 189.76 140.14 193.08 145.33C196.49 150.66 200.05 161.76 199.69 167.87C199.36 173.54 194.07 180.13 191 171.48ZM173.71 124.45C171.25 116.67 176.57 110.13 182.67 118.8C189.57 128.6 179.08 138.96 173.71 124.45ZM187.2 261.96C187.56 269.08 163.44 279.8 157.99 276.53C150.81 272.21 165.55 266.84 169.65 264.71C173.11 262.92 186.19 253.81 187.2 261.96ZM144.45 251.36C138.33 253.08 132.05 255.47 125.76 256.34C117.11 257.52 117.18 252.67 123.65 247.57C129.31 243.11 139.88 242.04 146.63 239.34C152.02 237.18 167.66 224.83 171.56 228.66C180.35 237.27 150.23 249.67 144.45 251.36ZM146.08 279.09C146.33 288.76 120.71 292 114.99 292.56C118.83 289.83 144.33 265.75 146.08 279.09ZM97.61 230.32C80.25 229.74 97.69 217.1 103.54 214.77C107.79 213.07 117.78 209.3 122.1 212.86C133.44 222.18 102.08 230.49 97.61 230.32ZM99.58 194.97C99.98 188.97 128.87 179.94 130.5 185.43C131.79 189.75 100.97 207.55 99.58 194.97ZM141.14 202.2C152.6 194.35 168.12 201.73 150.94 210.84C147.56 212.62 138.74 217.44 135 214.69C129.72 210.81 138.11 204.16 141.14 202.2ZM457.31 228.6C454.47 223.57 450.38 216.55 445.67 221.29C443.84 223.13 441.96 230.82 440.72 233.7C436.38 243.8 431.78 255.08 422.64 261.85C417.17 265.89 398.11 272.43 402.89 260.07C406.97 249.53 420.48 240.2 428.62 232.55C432.4 229.01 441.36 221.73 443.33 216.58C444.83 212.66 441.22 203.43 434.75 205.52C431.81 206.46 431.43 215.05 430.36 217.49C428.66 221.35 425.66 224.38 423.01 227.59C418.81 232.67 414.37 240.13 407.77 242.53C399.85 245.41 397.4 240.77 401.47 233.65C405.46 226.7 414.47 222.22 419.98 216.51C422.72 213.67 431.35 205.36 429.25 201.11C424.69 191.86 418.31 205.39 416.04 208.14C414.27 210.29 403.48 224.18 400.11 221.53C396.06 218.34 405.13 205.5 406.8 202.76C410.32 196.97 411.85 197.29 407.4 194.2C404.85 192.43 399.55 190.91 396.73 191.31C389.82 192.29 382.76 198.67 375.64 200.36C372.69 201.06 362.65 200.9 361.43 205.42C359.56 212.36 389.76 229.01 373.85 232.79C361.55 235.72 349.99 216.67 339.88 224.51C323.9 236.89 349.27 244.43 359.02 247C363.39 248.15 377.78 248.65 375.68 256.38C373.97 262.66 362.03 261.28 357.43 260.5C348.72 259.05 340.83 254.83 332.68 251.69C330.48 250.85 321.65 246.05 318.99 247.09C315.2 248.57 310.6 263.39 312.81 266.89C315.54 271.19 330.51 269.69 335.58 269.8C344.14 269.98 354.63 269.67 361.92 275C369.97 280.89 360.02 281.81 354.52 281.57C342.65 281.05 330.54 276.85 318.91 274.58C314.85 273.78 308.81 271.62 304.78 272.18C298.68 273.02 299.97 273.44 302.48 278.43C308.07 289.55 313.75 290.8 326.13 291.67C331.78 292.06 356.49 288.81 358.43 296.34C352.36 301.12 337.64 298.51 330.47 298.41C325.23 298.33 316.73 299.54 312.18 297C305.97 293.54 298.12 280.65 293.57 275.48C285.51 266.3 277.56 257.17 268.73 248.68C278.37 250.05 287.39 253.1 297.16 250.69C307.83 248.05 318.06 240.92 319.63 229.45C320.21 225.25 319.51 220.95 319.21 216.76C319.11 215.42 319.18 214.05 319.02 212.72C318.32 206.92 318.8 205.03 314.82 209.23C310.28 214 307.14 224.87 299.34 226.89C290.71 229.13 295.34 222.67 298.85 218.89C307.51 209.57 316.99 201.45 318.42 187.65C319.2 180.12 318.77 171.85 317.41 164.34C316.1 157.12 314.79 157.34 312.35 163.26C307.06 176.08 298.8 186.65 287.83 195.22C285.73 196.87 281.01 200.89 277.83 198.62C274.96 196.56 277.05 192.66 277.83 189.71C279.55 183.21 282.03 177.17 284.48 170.92C287.7 162.68 293.3 151.56 293.53 142.69C293.68 136.93 289.01 134.45 284.89 130.84C280.07 126.62 275.74 122.11 272 116.89C269.39 113.26 266.58 107.8 262.66 105.41C256.57 101.7 257.93 106.33 258.39 110.96C258.76 114.66 264.11 151.19 255.44 149.32C246.84 147.45 250.46 113.07 249.27 105.53C247.68 95.53 233.8 96.89 225.4 95.06C220.97 94.1 216.91 93.59 212.71 91.96C211.12 91.34 209.31 88.64 207.53 89.45C203.47 91.3 219.84 106.33 215.58 111.66C208.4 120.66 201.15 96.9 199.1 92.56C197.37 88.92 195.31 84.65 192.88 81.48C189.14 76.59 188.63 77.77 183.12 79.41C177.61 81.05 164.45 80.91 160.29 84.55C156.27 88.08 161.4 90.66 164.19 93.87C166.83 96.9 175.39 107.19 168.18 109.32C165.57 110.09 156.12 102.4 153.67 100.82C148.47 97.46 149.59 98.22 145.23 99.32C140.16 100.6 134.45 102.24 129.57 103.97C123.45 106.14 122 107.16 126.58 111.55C131.96 116.68 140.01 119.78 142.66 127.12C143.95 130.3 143.1 133.84 139.09 133.91C134.82 133.98 132.87 128.14 131.23 125.01C129.14 121.06 125.23 111.75 120.16 110.91C116.98 110.39 113.07 114.22 110.39 115.61C108.8 116.44 101.65 118.57 101.08 120.78C100.44 123.2 108.69 128.45 110.93 131.03C116.63 137.62 122.7 145.77 124.86 153.7C126.52 166.64 111.53 150.91 109.17 146.98C106.55 142.63 98.13 120.12 90.6 122.4C88.55 123.02 87.28 128.02 85.6 129.65C83.55 131.66 80.91 132.46 78.44 133.71C74.78 135.55 71.12 137.4 67.61 139.48C66.53 140.13 63.58 142 62.99 142.42C62.55 142.75 61.57 142.53 61.03 142.94C57.37 145.7 55.65 151.29 52.31 154.65C50.81 156.16 44.13 160.27 44.62 162.41C45.07 164.35 76.85 165.88 81.61 166.41C85.23 166.81 100.43 166.17 102.29 169.71C104.1 173.17 101.03 174.39 98.04 175.53C90.62 178.38 81.27 179.05 73.46 180.45C67.95 181.43 45.36 182.84 42.43 188.32C39.41 193.98 43.08 197.86 47.3 198.63C51.91 199.49 58.58 197.54 63.09 196.89C66.76 196.36 90.21 190.55 91.41 195.95C92.72 201.83 64.69 206.77 61.92 207.52C56.61 208.94 47.67 209.2 42.99 211.92C38.79 214.37 40.36 214.65 41.52 218.67C45.55 232.55 46.98 229.84 59.25 226.72C63.95 225.52 69.99 223.39 74.47 225.97C79.83 229.04 79.53 232.89 74.74 235.54C71.45 237.36 64.58 237.79 60.89 238.33C56.59 238.96 52.22 239.18 47.87 239.23C46.59 239.24 41 238.31 39.78 239.14C34.99 242.37 46.57 259.19 51.57 259.85C53.99 260.16 57.93 258.51 60.34 258.04C68.76 256.4 77.32 255.54 85.76 253.98C90.52 253.1 112.79 246.59 108.8 258.13C106.59 264.5 90.48 267.71 85.14 269.53C80 271.28 74.84 272.84 69.59 274.24C64.69 275.54 61.83 275 65.1 280.43C68.43 285.95 88.23 302.8 94.45 302.27C99.55 301.83 97.65 299.47 103.38 302.87C105.48 304.13 107.61 306.19 109.43 307.81C116.43 314.02 123.63 322.99 133.4 324.73C154.28 328.45 182.81 300.5 196.29 287.52C198.97 284.94 209.21 272.29 214.2 275.12C219.43 278.09 210.35 289.9 208.54 292.17C198.48 304.81 185.95 316.94 171.06 323.51C167.09 325.26 155.98 326.94 152.22 330.04C148.49 333.1 152.3 334.09 156.26 336.69C164.7 342.25 175.98 350.44 186.35 347.04C200.01 342.55 207.34 328.23 214.98 316.99C219.21 310.75 239.07 281.29 239.33 304.39C239.46 315.89 232.17 329.05 224.33 336.96C222.87 338.44 213.39 343.16 213.59 344.28C213.9 345.98 219.57 346.71 220.61 346.94C230.66 349.1 260.85 352.05 265.09 339.1C267.99 330.22 264.45 316.03 263.21 307.1C262.82 304.33 260.87 299.87 264.86 298.99C269.97 297.86 274.34 315.7 274.73 318.53C275.51 324.34 274.64 330.39 272.44 336.39C271.47 339.02 268.81 341.38 272.28 341.79C273.53 341.94 280.55 335.25 281.65 334.14C287.25 328.44 287.63 322.02 287.18 314.46C285.93 294.07 276.45 274.19 265.41 257.23C278.6 270.91 291.19 285.08 303.37 299.67C306.42 303.32 308.56 307.78 311.56 311.3C315.89 316.38 321.23 320.5 325.74 325.92C324.41 325.79 312.92 322.69 312.58 325.82C312.28 328.67 322.03 333.08 324.02 334.14C333.01 338.9 336.55 339.31 343.62 347.93C361.2 369.39 377.27 391.63 393 414.46C400.69 425.61 408.79 436.6 415.57 448.35C418.96 454.24 421.69 460.53 424.27 466.81C426.05 471.13 428.28 484.18 433.82 485.56C440.26 487.18 438.68 480.09 437.37 476.75C434.43 469.22 432.28 461.89 430.18 454.04C426.77 441.26 424.2 428.27 420.47 415.56C415.81 399.71 411.98 383.72 408.14 367.66C405.65 357.23 403.51 346.63 401.9 336.02C400.8 328.74 401.08 320.94 399.13 313.8C406.73 320.66 405.25 333.05 417.96 333.94C427.78 334.62 434.87 326.7 440.49 319.7C445.07 314 451.65 305.38 452.54 297.89C453.6 288.95 446.11 295.34 440.53 297.28C436.92 298.53 426.99 304.25 424.02 300.83C419.87 296.06 434.67 289.85 437.53 288.03C443.83 284.04 450.81 279.18 455.6 273.32C457.49 271.01 465.34 245.87 456.64 249.29C455.53 249.72 453.99 253.23 453.1 254.47C448.97 260.2 444.28 265.37 439.22 270.28C433.7 275.63 421.65 288.22 412.44 285.5C416.17 274.2 431.79 268.32 440.23 260.91C445.66 256.16 450.36 250.9 453.58 244.38C455.19 241.14 459.26 232.05 457.31 228.6Z" fill="#02362C" fill-opacity="1.000000" fill-rule="evenodd"/>
</svg>
