<svg width="120" height="120.002" fill="none" xmlns="http://www.w3.org/2000/svg"><path d="m65.805 12.13-11.613 2-5.807-5.996L53.135 0l12.67.146V12.13ZM52.26 26.113 42.239 30.26 29.035 18.123l7.742-7.993L52.26 26.113Zm50.321 51.939-11.613 7.99 13.549 5.993-1.936 11.986H87.098l-9.678 15.981-7.742-15.981-11.613-7.99-5.806 9.987L5.807 82.047 0 64.068l6.484-6.628-4.548-19.341L17.42 20.12 42.58 46.09l7.742-7.991 13.549 7.99-5.807 7.99-7.742 15.982 13.549 5.993 5.806 9.988 5.807-11.986-7.742-9.988 7.742-5.993 7.742 7.99 7.742-7.99 11.613 11.986v7.99ZM68.54 35.46l-7.73-5.803 1.405-6.526 13.272-1.011L92.907 36.1l-3.872 11.986-5.806 3.997-5.807-3.997v-5.993l-5.806-7.99-3.076 1.356Zm49.524 50.582h-3.871c-1.068 0-1.935-.894-1.935-1.998 0-1.103.867-1.997 1.935-1.997h3.871c1.07 0 1.936.894 1.936 1.997 0 1.104-.866 1.998-1.936 1.998Zm-3.867 27.967h-3.871c-1.069 0-1.935-.894-1.935-1.998 0-1.103.866-1.997 1.935-1.997h3.871c1.069 0 1.936.894 1.936 1.997 0 1.104-.867 1.998-1.936 1.998Z" clip-rule="evenodd" fill="#C99B67" fill-rule="evenodd"/></svg>