<svg width="235" height="24" fill="none" xmlns="http://www.w3.org/2000/svg"><path d="M42.66 23.24c-.979.473-2.12.71-3.423.71q-1.94 0-3.5-.77h-.002q-.104-.05-.206-.105-.668-.358-1.22-.845-.804-.709-1.364-1.693Q32 18.876 32 16.496q0-2.127.845-3.836.068-.137.141-.272.513-.941 1.236-1.677.666-.679 1.51-1.182.084-.05.17-.098 1.702-.952 3.938-.952 2.004 0 3.382.595 1.377.595 2.102 1.612.351.492.532 1.04.193.584.193 1.233 0 1.108-.532 1.816-.103.136-.225.258-.134.132-.284.241-.703.511-1.778.511-1.144 0-1.816-.563-.114-.095-.213-.205c-.462-.513-.693-1.215-.693-2.108v-1.058q0-.81-.294-1.223c-.195-.276-.472-.413-.83-.413q-.152 0-.294.034-.366.089-.676.404c-.288.292-.511.73-.669 1.314q-.236.876-.236 2.165c0 1.235.182 2.27.546 3.108.364.837.861 1.465 1.491 1.884q.303.201.632.338.7.29 1.52.29c.804 0 1.477-.118 2.02-.355.544-.237.962-.637 1.256-1.199.163-.154.29-.253.383-.297a.62.62 0 0 1 .269-.066.374.374 0 0 1 .269.157c.06.081.091.201.091.361 0 .025 0 .05-.002.077-.087 1.08-.418 2.033-.994 2.86-.576.826-1.353 1.476-2.33 1.95Zm16.567-.33c-1.222.671-2.643 1.007-4.262 1.007q-2.363 0-4.148-.983-1.006-.555-1.761-1.348-.584-.614-1.018-1.371l-.064-.114q-.93-1.696-.93-3.903 0-1.629.581-3.014.197-.47.462-.911c.695-1.163 1.657-2.086 2.885-2.769l.08-.044q1.814-.98 4.157-.98 2.38 0 4.156.991a7.107 7.107 0 0 1 2.771 2.744c.663 1.168.994 2.518.994 4.05 0 1.454-.345 2.757-1.035 3.909-.69 1.151-1.646 2.063-2.868 2.735Zm-3.023-.712c-.337.066-.666-.082-.987-.446-.32-.364-.624-.975-.912-1.835q-.432-1.289-.823-3.388c-.25-1.4-.392-2.551-.424-3.454a12.13 12.13 0 0 1-.008-.434q0-1.038.203-1.616c.163-.463.413-.733.75-.81.337-.066.666.083.986.446.32.364.628.976.921 1.835.294.86.57 1.989.831 3.388.261 1.4.405 2.554.432 3.463.004.126.006.248.006.366 0 .73-.073 1.293-.218 1.692-.168.463-.42.727-.758.793Zm18.547.662c0 .506-.255.76-.766.76H64.99a.746.746 0 0 1-.53-.19c-.136-.127-.204-.306-.204-.537a.77.77 0 0 1 .139-.48.978.978 0 0 1 .431-.297l.701-.215q.13-.041.231-.119.103-.079.177-.195c.098-.154.147-.375.147-.662v-9.553a.644.644 0 0 0-.114-.389c-.077-.104-.218-.2-.424-.289l-.946-.314c-.25-.121-.429-.25-.537-.388q-.037-.046-.065-.097-.098-.176-.098-.407c0-.199.067-.361.203-.488l.054-.044c.13-.098.3-.146.509-.146h1.43l-.011-.097a1.346 1.346 0 0 0-.23-.556l-.554-.802q-.31-.446-.554-1.066-.245-.62-.245-1.529 0-1.4.614-2.438.335-.566.854-1.024C66.944.433 68.335 0 70.139 0c1.163 0 2.127.187 2.893.562.766.375 1.34.873 1.72 1.496.38.622.57 1.303.57 2.041q0 1.26-.63 1.912l-.046.047c-.451.435-1.03.653-1.736.653-.783 0-1.413-.254-1.891-.76-.478-.507-.717-1.18-.717-2.017V2.463q0-.579-.228-.851c-.152-.182-.386-.273-.701-.273-.402 0-.707.138-.913.413-.206.276-.31.672-.31 1.19 0 .53.123 1.025.367 1.488l.007.013q.365.687.898 1.284c.358.402.717.788 1.076 1.157q.537.554.904 1.091l.07.108q.198.321.264.64l.015.087h2.414q.375 0 .578.157c.136.105.204.267.204.488 0 .33-.141.6-.424.81-.282.209-.728.314-1.336.314H72.03v10.297c0 .309.046.545.138.71a.59.59 0 0 0 .448.298l1.402.215c.25.033.435.113.554.24.12.127.18.3.18.52Zm11.377 0c0 .506-.255.76-.766.76h-8.997a.746.746 0 0 1-.53-.19c-.135-.127-.203-.306-.203-.537a.77.77 0 0 1 .138-.48.978.978 0 0 1 .432-.297l.7-.215q.13-.041.232-.119.103-.079.176-.195c.098-.154.147-.375.147-.662v-9.553a.644.644 0 0 0-.114-.389c-.076-.104-.218-.2-.424-.289l-.945-.314c-.25-.121-.43-.25-.538-.388q-.036-.046-.065-.097-.098-.176-.098-.407c0-.199.068-.361.204-.488l.053-.044a.83.83 0 0 1 .51-.146h1.43l-.012-.097a1.346 1.346 0 0 0-.23-.556c-.162-.237-.347-.504-.553-.802q-.31-.446-.554-1.066-.245-.62-.245-1.529 0-1.4.614-2.438.335-.566.853-1.024C78.321.433 79.712 0 81.515 0c1.163 0 2.127.187 2.893.562.766.375 1.34.873 1.72 1.496.38.622.57 1.303.57 2.041 0 .87-.225 1.524-.676 1.959-.451.435-1.03.653-1.736.653-.782 0-1.412-.254-1.89-.76-.478-.507-.718-1.18-.718-2.017V2.463q0-.579-.228-.851c-.152-.182-.386-.273-.7-.273-.403 0-.707.138-.913.413-.207.276-.31.672-.31 1.19 0 .53.122 1.025.367 1.488l.006.013q.365.687.898 1.284c.359.402.717.788 1.076 1.157q.538.554.905 1.091l.07.108q.197.321.263.64l.015.087h2.414q.375 0 .579.157c.136.105.203.267.203.488 0 .33-.14.6-.423.81-.283.209-.728.314-1.337.314h-1.157v10.297c0 .309.046.545.139.71a.588.588 0 0 0 .448.298l1.401.215c.25.033.435.113.555.24.12.127.179.3.179.52Zm11.996.28c-1.054.54-2.271.81-3.651.81-1.521 0-2.858-.316-4.01-.95a6.821 6.821 0 0 1-2.697-2.661c-.647-1.14-.97-2.46-.97-3.959 0-1.576.313-2.956.937-4.14a6.684 6.684 0 0 1 2.714-2.769c1.184-.661 2.608-.992 4.27-.992 1.413 0 2.63.279 3.651.835 1.022.557 1.807 1.311 2.355 2.265q.229.396.393.817.43 1.098.43 2.364c0 .507-.135.907-.407 1.199l-.065.064c-.268.25-.637.374-1.108.374h-7.451l.016.076c.197.907.535 1.634 1.013 2.18.815.931 1.901 1.397 3.26 1.397.869 0 1.638-.199 2.306-.595.668-.397 1.116-.948 1.344-1.653a1.25 1.25 0 0 1 .351-.29.64.64 0 0 1 .269-.074c.108 0 .201.044.277.132.076.088.114.237.114.447a5.31 5.31 0 0 1-.88 2.966c-.587.899-1.407 1.618-2.461 2.157Zm-5.78-8.068q-.023-.38-.023-.791c0-1.036.076-1.851.229-2.446.152-.595.347-1.017.586-1.265.24-.248.506-.372.8-.372.38 0 .735.325 1.066.976q.498.975.498 3.24c0 .462-.207.693-.62.693h-2.533l-.002-.035Zm21.361 8.068c-1.054.54-2.271.81-3.651.81-1.521 0-2.857-.316-4.009-.95a6.825 6.825 0 0 1-2.698-2.661c-.646-1.14-.969-2.46-.969-3.959 0-1.576.312-2.956.937-4.14a6.682 6.682 0 0 1 2.714-2.769c1.184-.661 2.607-.992 4.27-.992 1.412 0 2.629.279 3.651.835 1.021.557 1.806 1.311 2.355 2.265.549.953.823 2.013.823 3.181 0 .507-.136.907-.408 1.199l-.064.064c-.268.25-.638.374-1.109.374h-7.451l.016.076c.198.907.536 1.634 1.013 2.18q.447.51 1.001.834.966.563 2.259.563c.869 0 1.638-.199 2.306-.595.669-.397 1.117-.948 1.345-1.653.13-.144.247-.24.35-.29a.644.644 0 0 1 .269-.074c.109 0 .201.044.277.132.077.088.114.237.114.447a5.31 5.31 0 0 1-.88 2.966c-.586.899-1.407 1.618-2.461 2.157Zm-5.779-8.068q-.023-.38-.023-.791c0-1.036.076-1.851.228-2.446.152-.595.348-1.017.587-1.265q.27-.28.586-.349.104-.023.213-.023c.38 0 .736.325 1.067.976.332.65.497 1.73.497 3.24q0 .386-.192.557-.153.136-.427.136h-2.534l-.002-.035Zm19.674 8.341c-.136.138-.334.207-.595.207h-8.149c-.239 0-.427-.066-.563-.199-.136-.132-.203-.314-.203-.545 0-.176.04-.322.122-.438q.122-.174.334-.322l.375-.149q.112-.053.188-.138.067-.076.105-.176c.055-.143.082-.38.082-.71v-8.398c0-.264-.03-.454-.09-.57a.62.62 0 0 0-.301-.273l-.424-.05a1.036 1.036 0 0 1-.334-.28.637.637 0 0 1-.106-.38c0-.177.054-.334.163-.471.108-.138.293-.257.554-.356l4.629-1.339c.271-.11.499-.187.684-.231q.277-.066.473-.066c.185 0 .323.066.415.198l.03.048c.076.138.129.36.158.663l.124 2.568.028-.094c.055-.18.116-.351.182-.515.397-.987.921-1.72 1.573-2.199q.608-.447 1.286-.616.412-.103.849-.103c.935 0 1.652.314 2.151.942.5.629.75 1.582.75 2.86q0 1.9-.782 2.793c-.522.595-1.195.893-2.021.893q-1.189 0-1.768-.594l-.017-.018c-.386-.407-.589-.986-.611-1.735l-.016-.661c-.011-.254-.06-.452-.147-.595-.087-.144-.228-.215-.424-.215-.195 0-.366.102-.513.306-.147.203-.258.515-.334.933q-.114.629-.114 1.604v5.818c0 .308.048.553.146.735.098.182.25.295.457.34l1.222.247q.322.047.471.232l.018.024q.033.047.059.098.088.173.088.39c0 .22-.068.4-.204.537Zm17.293-.504c-1.223.672-2.643 1.008-4.262 1.008-1.576 0-2.959-.327-4.148-.983q-1.006-.555-1.761-1.348-.585-.614-1.018-1.371l-.064-.113q-.931-1.697-.931-3.904c0-1.454.348-2.763 1.044-3.925.695-1.163 1.657-2.086 2.884-2.769l.081-.044q1.813-.98 4.157-.98c1.586 0 2.972.33 4.156.991a7.104 7.104 0 0 1 2.771 2.744l.05.09q.944 1.72.944 3.96c0 1.454-.345 2.757-1.035 3.909-.69 1.151-1.646 2.063-2.868 2.735Zm-3.024-.71c-.337.065-.665-.083-.986-.447-.32-.364-.624-.975-.913-1.835q-.431-1.289-.823-3.388c-.25-1.4-.391-2.551-.423-3.454q-.008-.227-.008-.434c0-.692.067-1.23.203-1.616.163-.463.413-.733.75-.81.337-.066.665.083.986.446.321.364.628.976.921 1.835q.44 1.29.831 3.388c.261 1.4.405 2.554.432 3.463.004.126.006.248.006.366 0 .73-.073 1.293-.218 1.692-.168.463-.421.727-.758.793Zm22.101 1.247c-.586.336-1.336.504-2.249.504-1.097 0-1.948-.234-2.551-.702l-.103-.084a2.228 2.228 0 0 1-.689-.96l-.024-.074-.022.029c-.397.49-.914.886-1.549 1.188a6.311 6.311 0 0 1-2.739.603q-1.758 0-2.891-.842-.127-.094-.246-.199c-.788-.694-1.182-1.581-1.182-2.661 0-1.422.574-2.529 1.72-3.323 1.146-.793 2.888-1.19 5.223-1.19l.176.002c.345.008.649.036.911.087l.087.019v-4.818c0-.386-.09-.692-.269-.918a.877.877 0 0 0-.725-.338 1.02 1.02 0 0 0-.709.256c-.19.17-.285.41-.285.719V12q0 .781-.333 1.377-.188.337-.482.615c-.544.512-1.288.768-2.233.768q-1.157 0-1.769-.553c-.407-.37-.611-.907-.611-1.612q0-.06.003-.12.047-.93.82-1.822c.549-.634 1.369-1.154 2.461-1.562 1.092-.408 2.453-.612 4.083-.612q3.146 0 4.621 1.199c.983.799 1.475 1.925 1.475 3.38v7.305c0 .21.046.378.138.505.093.126.231.19.416.19q.067 0 .131-.014.123-.026.236-.102c.114-.077.198-.215.252-.413a.317.317 0 0 1 .261-.132q.072 0 .133.026.089.04.152.139c.071.11.106.248.106.413 0 .386-.144.81-.432 1.273-.288.463-.725.862-1.312 1.198Zm-6.813-2.074c-.434 0-.784-.18-1.051-.537-.266-.358-.399-.907-.399-1.645 0-.771.128-1.355.383-1.752s.595-.595 1.019-.595c.25 0 .467.025.651.074l.082.025v4.242l-.053.03a1.36 1.36 0 0 1-.538.155l-.094.003Zm20.504 1.29c-1.032.892-2.515 1.338-4.449 1.338q-.978 0-1.622-.182a7.508 7.508 0 0 1-1.043-.363c-.266-.122-.481-.182-.644-.182-.163 0-.378.06-.644.182l-.798.363q-.4.182-.677.182a.727.727 0 0 1-.456-.165c-.141-.11-.25-.33-.326-.661l-.505-3.29a3.01 3.01 0 0 1-.088-.682c0-.136.013-.26.039-.376.065-.286.212-.474.44-.562a.84.84 0 0 1 .709-.016c.234.1.443.275.627.529.62.959 1.179 1.713 1.679 2.264.5.551.986.94 1.459 1.165.472.227.97.34 1.491.34.554 0 .967-.133 1.239-.397.272-.265.407-.6.407-1.009 0-.308-.079-.589-.236-.842-.158-.254-.446-.488-.864-.703-.418-.215-1.019-.427-1.801-.636-1.206-.309-2.206-.711-2.999-1.207-.793-.496-1.382-1.09-1.768-1.785-.386-.694-.579-1.504-.579-2.43 0-1.046.258-1.947.774-2.702.516-.755 1.223-1.336 2.119-1.744q1.345-.612 3.024-.612c.673 0 1.222.066 1.646.199.424.132.752.264.986.396.233.133.41.199.53.199.13 0 .323-.064.578-.19.256-.127.514-.251.774-.372q.391-.182.652-.182c.196 0 .353.066.473.198.119.133.201.358.244.678l.424 3.041c.045.257.067.48.067.668 0 .134-.012.25-.034.349a.575.575 0 0 1-.424.454q-.032.008-.065.012-.248.034-.522-.12a2.241 2.241 0 0 1-.619-.553c-.793-1.2-1.519-2.05-2.176-2.545-.657-.496-1.355-.744-2.094-.744q-.799 0-1.206.347a1.136 1.136 0 0 0-.408.91c0 .253.06.49.179.71q.18.33.66.62c.321.193.775.383 1.361.57 1.576.485 2.798 1 3.668 1.545.869.546 1.477 1.171 1.825 1.876.348.706.522 1.526.522 2.463 0 1.543-.516 2.76-1.549 3.653Zm11.002.718q-1.076.57-2.543.57c-1.651 0-2.893-.402-3.724-1.206-.831-.805-1.247-2.072-1.247-3.802v-7.47c0-.232-.022-.409-.065-.53-.043-.121-.152-.22-.326-.297l-.766-.248c-.185-.088-.304-.196-.359-.322a1.205 1.205 0 0 1-.081-.472c0-.231.081-.421.244-.57a.862.862 0 0 1 .603-.223h.799q.147 0 .31-.116c.108-.077.255-.231.44-.463l3.015-2.529q.326-.396.652-.603.326-.206.652-.206c.25 0 .445.077.587.231l.044.055c.112.154.168.378.168.672l-.001 2.959h3.407c.239 0 .424.052.554.157.13.105.196.267.196.488 0 .308-.136.573-.408.793l-.06.046c-.274.19-.689.285-1.244.285h-2.445l.001 7.537c0 .826.138 1.438.415 1.834.277.397.682.595 1.215.595.228 0 .439-.05.635-.148.196-.1.372-.229.53-.389.157-.16.307-.339.448-.537.141-.198.277-.396.408-.595a.242.242 0 0 1 .285.058c.072.073.108.212.108.418l-.002.086c-.076.893-.324 1.678-.742 2.356a4.363 4.363 0 0 1-1.703 1.586Zm14.327-.24c-1.054.54-2.271.81-3.652.81-1.521 0-2.857-.316-4.009-.95a6.816 6.816 0 0 1-2.697-2.661c-.647-1.14-.97-2.46-.97-3.959q0-2.363.937-4.14a6.682 6.682 0 0 1 2.714-2.769q1.776-.992 4.27-.992c1.413 0 2.629.279 3.651.835q1.054.574 1.773 1.43.325.389.582.835c.549.953.823 2.013.823 3.181 0 .507-.136.907-.407 1.199l-.065.064c-.268.25-.638.374-1.109.374h-7.451l.016.076c.198.907.536 1.634 1.013 2.18q.447.51 1.002.834.965.563 2.258.563c.87 0 1.638-.199 2.307-.595.668-.397 1.116-.948 1.344-1.653.13-.144.247-.24.35-.29a.644.644 0 0 1 .269-.074c.109 0 .201.044.278.132.075.088.114.237.114.447 0 1.08-.294 2.068-.881 2.966-.586.899-1.407 1.618-2.46 2.157Zm-5.78-8.068q-.023-.38-.023-.791c0-1.036.076-1.851.228-2.446.152-.595.348-1.017.587-1.265s.505-.372.799-.372c.38 0 .736.325 1.067.976.332.65.497 1.73.497 3.24 0 .462-.206.693-.619.693h-2.534l-.002-.035Zm19.674 8.341c-.136.138-.334.207-.595.207h-8.149c-.239 0-.427-.066-.563-.199-.135-.132-.203-.314-.203-.545 0-.176.041-.322.122-.438q.122-.174.334-.322l.375-.149q.113-.053.188-.138.067-.075.105-.176c.055-.143.082-.38.082-.71v-8.398c0-.264-.03-.454-.09-.57l-.018-.032q-.092-.15-.283-.24l-.424-.05a1.036 1.036 0 0 1-.334-.281.637.637 0 0 1-.106-.38c0-.177.054-.334.163-.471.108-.138.293-.257.554-.356l4.629-1.339q.407-.165.684-.231c.185-.044.343-.066.473-.066.185 0 .323.066.416.198l.029.048c.077.138.129.36.158.663l.124 2.569.028-.095c.055-.18.116-.351.182-.515q.595-1.48 1.573-2.199c.652-.479 1.364-.719 2.135-.719.935 0 1.652.314 2.152.942.5.629.749 1.582.749 2.86 0 1.267-.26 2.198-.782 2.793-.522.595-1.195.893-2.021.893-.804 0-1.399-.204-1.785-.612-.386-.407-.589-.986-.611-1.735l-.016-.661c-.011-.254-.06-.452-.147-.595-.087-.144-.228-.215-.424-.215-.195 0-.366.102-.513.306-.147.203-.258.515-.334.933-.076.42-.114.954-.114 1.604v5.818c0 .308.049.553.146.735.098.182.25.295.457.34l1.222.247c.228.033.391.119.489.256a.82.82 0 0 1 .147.488c0 .22-.068.4-.204.537Zm16.568-.752c-1.033.893-2.516 1.339-4.45 1.339q-.978 0-1.622-.182a7.556 7.556 0 0 1-1.043-.363c-.266-.122-.481-.182-.644-.182-.162 0-.377.06-.643.182l-.799.363q-.399.182-.676.182a.732.732 0 0 1-.457-.165c-.141-.11-.25-.33-.326-.661l-.505-3.29a3.01 3.01 0 0 1-.088-.682c0-.136.013-.26.039-.376.065-.286.212-.474.44-.562a.84.84 0 0 1 .709-.016c.234.1.443.275.628.529.619.959 1.179 1.713 1.678 2.264.5.551.986.94 1.459 1.165.473.227.97.34 1.492.34.554 0 .967-.133 1.238-.397.272-.265.408-.6.408-1.009 0-.308-.079-.589-.237-.842-.157-.254-.445-.488-.864-.703-.418-.215-1.018-.427-1.801-.636-1.206-.309-2.205-.711-2.998-1.207-.794-.496-1.383-1.09-1.769-1.785-.386-.694-.579-1.504-.579-2.43 0-1.046.259-1.947.775-2.702.516-.755 1.222-1.336 2.119-1.744q1.344-.612 3.023-.612c.674 0 1.222.066 1.646.199.424.132.753.264.986.396.234.133.41.199.53.199.13 0 .323-.064.578-.19.256-.127.514-.251.775-.372q.391-.182.652-.182c.195 0 .353.066.472.198.12.133.201.358.245.678l.424 3.041c.044.257.066.48.066.668 0 .134-.011.25-.034.349a.572.572 0 0 1-.424.454q-.032.008-.065.012-.248.034-.521-.12c-.207-.115-.413-.3-.62-.553-.793-1.2-1.518-2.05-2.176-2.545-.657-.496-1.355-.744-2.094-.744q-.799 0-1.206.347a1.136 1.136 0 0 0-.408.91c0 .253.06.49.18.71q.179.33.66.62c.32.193.774.383 1.361.57 1.575.485 2.798 1 3.667 1.545.869.546 1.478 1.171 1.826 1.876.347.706.521 1.526.521 2.463 0 1.543-.516 2.76-1.548 3.653Z" clip-rule="evenodd" fill="#555" fill-rule="evenodd"/><path d="M13.49 3.003C9.974-.51 4.764-1.014 1.876 1.878-1.013 4.768-.508 9.978 3 13.49a10.605 10.605 0 0 0 3.153 2.164c.373-2.17 1.445-4.257 3.07-5.97a22.952 22.952 0 0 0-1.666-.511c-3.41-.936-5.106-3.782-5.502-7.118.963 1.158 1.673 2.483 2.851 3.453C6.164 6.544 7.548 6.92 9.068 7.36c.688.2 1.286.495 1.835.84 1.443-1.054 3.07-1.756 4.75-2.046a10.573 10.573 0 0 0-2.164-3.151ZM7.546 16.489c.223-2.173 1.276-4.299 2.963-5.986 3.515-3.512 8.724-4.019 11.613-1.125 2.89 2.89 2.387 8.1-1.126 11.613-1.688 1.688-3.813 2.74-5.987 2.965-.29.03-.576.044-.856.044-1.87 0-3.539-.655-4.768-1.886-1.417-1.414-2.07-3.412-1.84-5.625Zm8.894.186c-1.356.37-2.602.719-3.754 1.598-1.317 1.006-2.082 2.41-3.125 3.663.381-3.284 2.031-6.105 5.369-7.074 1.52-.441 2.904-.818 4.16-1.851 1.181-.97 1.89-2.294 2.852-3.453-.397 3.336-2.09 6.181-5.502 7.117Z" clip-rule="evenodd" fill="#0A775F" fill-rule="evenodd"/></svg>