<svg width="120" height="107" fill="none" xmlns="http://www.w3.org/2000/svg"><path d="M10.102 80.027c1.184-7.529-2.13-15.247-5.696-22.348-1.448-2.884-2.923-5.666-4.158-8.298a2.693 2.693 0 0 1-.176-1.75l2.255-9.392a2.641 2.641 0 0 1 1.79-1.914c4.825-1.511 20.235-6.95 21.622-14.945a.755.755 0 0 1 .226-.416L39.107 8.311a.784.784 0 0 1 1.147.075c1.235 1.549 4.675 4.998 9.79 3.299l-1.587-1.6a.768.768 0 0 1 .012-1.107l6.01-5.666a.743.743 0 0 1 .53-.214h18.32c.655 0 1.02.768.605 1.272l-5.884 7.138a.779.779 0 0 0 .176 1.146c2.092 1.36 8.203 5.351 11.97 7.806 1.916 1.247 4.499.466 5.368-1.649.97-2.355 1.877-6.018 1.89-11.47 0-.088.013-.189.05-.277L90.05.492A.778.778 0 0 1 91.448.39c1.248 2.165 3.478 6.761 3.478 12.125l1.222-.882a.775.775 0 0 1 1.07.151l2.672 3.476a.82.82 0 0 1 .151.541c-.176 1.876-.667 12.213 8.417 16.355a.759.759 0 0 1 .378.366l11.088 22.16a.836.836 0 0 1 .076.352v9.33c0 1.422-.605 2.77-1.676 3.714-4.347 3.853-15.712 14.542-16.405 21.945a.768.768 0 0 1-.769.693H81.607a.749.749 0 0 1-.365-.088c-1.26-.68-7.913-9.393-9.261-17.841-.1-.63-.895-.87-1.336-.39l-4.372 4.834a2.12 2.12 0 0 1-1.588.705 1.365 1.365 0 0 1-1.348-1.133c-.504-2.946-2.747-10.652-12.146-10.652-5.04 0-12.89 1.94-20.173 4.13 0 0-8.064 2.518-14.024 10.576-.202.277-.53.441-.882.441h-4.914c-.68 0-1.197-.604-1.096-1.272Zm85.477 26.554a2.431 2.431 0 0 0 3.717-1.41l2.079-8.184a1.006 1.006 0 0 0-.982-1.26H86.406c-.844 0-1.31.97-.794 1.625 3.516 4.457 7.397 7.492 9.967 9.229Z" clip-rule="evenodd" fill="#C99B67" fill-rule="evenodd"/></svg>