<svg width="128.305908" height="135.433105" viewBox="0 0 128.306 135.433" fill="none" xmlns="http://www.w3.org/2000/svg" xmlns:xlink="http://www.w3.org/1999/xlink">
	<desc>
			Created with Pixso.
	</desc>
	<defs/>
	<path id="Vector" d="M58.82 116.06C60.42 117.95 61.23 120.07 61.24 122.42C61.25 124.77 60.38 127.23 58.63 129.79C57.69 131.17 56.49 132.37 55.11 133.31C53.72 134.27 52.16 134.91 50.44 135.23C48.71 135.55 46.86 135.48 44.87 135.03C42.88 134.57 40.81 133.6 38.67 132.12C36.83 130.85 35.31 129.39 34.11 127.75C32.91 126.11 32.08 124.36 31.62 122.51C31.15 120.66 31.09 118.77 31.44 116.83C31.78 114.89 32.59 112.98 33.87 111.1C34.28 110.49 34.72 109.95 35.17 109.48C35.59 109.04 36.04 108.61 36.49 108.19C36.93 107.8 37.32 107.44 37.68 107.11C38.03 106.78 38.32 106.45 38.55 106.12C38.74 105.84 38.89 105.49 38.98 105.07C39.08 104.66 39.09 104.33 39 104.08L48.95 110.94C48.08 110.59 47.09 110.33 46.01 110.14C44.97 109.96 43.91 109.9 42.85 109.97C41.84 110.04 40.85 110.27 39.92 110.66C39.01 111.06 38.28 111.65 37.75 112.43C37.23 113.18 36.94 114.06 36.9 114.98C36.85 115.91 37.06 116.91 37.53 117.95C38 119.01 38.75 120.09 39.77 121.2C40.79 122.32 42.11 123.43 43.73 124.54C45.09 125.48 46.43 126.22 47.76 126.76C49.08 127.3 50.31 127.62 51.45 127.71C52.59 127.81 53.62 127.68 54.56 127.32C55.49 126.96 56.26 126.33 56.87 125.45C57.84 124.03 58.33 122.61 58.34 121.21C58.35 119.8 57.88 118.31 56.93 116.71L58.82 116.06Z" fill="#FFFFFF" fill-opacity="1.000000" fill-rule="nonzero"/>
	<path id="Vector" d="M73.72 97.9C74.18 100.12 74.3 102.23 74.07 104.23C73.83 106.23 73.28 108.01 72.43 109.59C71.57 111.17 70.42 112.5 68.98 113.6C67.54 114.68 65.83 115.44 63.85 115.85C61.88 116.27 60.01 116.27 58.25 115.86C56.49 115.44 54.9 114.69 53.48 113.59C52.07 112.49 50.85 111.08 49.82 109.35C48.8 107.61 48.06 105.63 47.59 103.41C47.12 101.15 47 99.03 47.24 97.03C47.47 95.03 48.02 93.25 48.88 91.67C49.72 90.1 50.9 88.74 52.33 87.69C53.78 86.61 55.49 85.87 57.47 85.45C59.44 85.03 61.31 85.03 63.06 85.42C64.8 85.81 66.42 86.58 67.83 87.67C69.24 88.77 70.46 90.18 71.48 91.92C72.5 93.65 73.24 95.64 73.72 97.9L73.72 97.9ZM56.57 101.51C56.93 103.23 57.34 104.77 57.82 106.13C58.29 107.49 58.8 108.63 59.36 109.55C59.91 110.47 60.5 111.13 61.12 111.55C61.74 111.97 62.37 112.11 63.03 111.97C63.69 111.83 64.22 111.45 64.61 110.81C65.01 110.18 65.29 109.33 65.44 108.26C65.59 107.2 65.61 105.94 65.49 104.51C65.38 103.07 65.14 101.5 64.78 99.78C64.41 98.03 63.99 96.48 63.52 95.12C63.05 93.76 62.52 92.62 61.96 91.71C61.39 90.79 60.8 90.12 60.18 89.71C59.56 89.29 58.92 89.15 58.26 89.29C57.6 89.43 57.08 89.81 56.68 90.45C56.28 91.08 56.02 91.93 55.88 93C55.74 94.06 55.73 95.31 55.85 96.75C55.96 98.18 56.2 99.77 56.57 101.51Z" fill="#FFFFFF" fill-opacity="1.000000" fill-rule="nonzero"/>
	<path id="Vector" d="M90.82 96.62L82.8 96.94L83.08 103.89L87.8 103.7L90.91 102.24L91.21 109.52L87.99 108.31L83.27 108.5L83.65 117.85L86.31 121.16L73.01 121.69L75.4 118.18L74.48 95.57L71.82 92.26L93.78 91.38L94.13 100.04L90.82 96.62ZM114.94 81.92L111.71 79.17L89.23 77.71L85.68 80.02L87.09 57.71L95.7 58.27L91.97 61.22L91.45 69.55L98.36 70L98.67 65.21L97.54 62L104.77 62.47L103.24 65.51L102.94 70.29L110.5 70.79L111.02 62.46L107.69 59.05L116.35 59.62L114.94 81.92Z" fill="#FFFFFF" fill-opacity="1.000000" fill-rule="nonzero"/>
	<path id="Vector" d="M101.42 114.67L102.51 110.56L94.16 89.53L90.56 87.3L111.23 79.04L114.42 87.09L110.17 84.97L102.46 88.05L105.03 94.52L109.46 92.75L111.86 90.35L114.55 97.12L111.16 97.03L106.73 98.8L109.53 105.87L117.25 102.79L118.88 98.31L122.1 106.41L101.42 114.67ZM69.92 67.92L68.09 75.78L74.84 77.37L75.92 72.75L75.34 69.35L82.4 71.02L80.39 73.81L79.31 78.43L88.38 80.57L92.26 78.89L89.23 91.9L86.5 88.65L64.56 83.46L60.68 85.15L65.69 63.66L74.09 65.64L69.92 67.92ZM34.55 74.49L27.83 79.81L32.41 85.65L36.37 82.51L38.14 79.29L42.93 85.4L39.4 86.37L35.44 89.51L41.6 97.35L45.95 98.54L34.8 107.36L34.67 102.83L19.78 83.86L15.43 82.67L33.84 68.1L39.54 75.37L34.55 74.49Z" fill="#FFFFFF" fill-opacity="1.000000" fill-rule="nonzero"/>
	<path id="Vector" d="M52.44 87.71L51.5 83.27L33.51 67.32L28.97 66.91L38.58 55.96L39.59 60.39L57.59 76.35L62.05 76.76L52.44 87.71Z" fill="#FFFFFF" fill-opacity="1.000000" fill-rule="nonzero"/>
	<path id="Vector" d="M69.28 41.51C69.55 42.66 69.63 43.76 69.53 44.81C69.42 45.86 69.16 46.83 68.73 47.73C68.32 48.6 67.76 49.39 67.07 50.07C66.4 50.73 65.63 51.27 64.79 51.67L64.87 52.01C65.33 52 65.82 52.1 66.32 52.3C66.82 52.5 67.29 52.74 67.75 53.02C68.16 53.27 68.56 53.56 68.93 53.88C69.27 54.17 69.51 54.4 69.64 54.57L72.49 58.54C73.02 59.19 73.64 59.63 74.37 59.86C75.09 60.1 75.92 59.98 76.85 59.53C76.72 60.13 76.48 60.67 76.13 61.14C75.76 61.62 75.33 62.03 74.83 62.36C74.32 62.7 73.77 62.99 73.2 63.23C72.62 63.47 72.07 63.64 71.57 63.76C70.01 64.13 68.66 64.23 67.51 64.05C66.36 63.86 65.3 63.16 64.34 61.94L60.18 56.46C59.79 55.95 59.26 55.55 58.59 55.27C57.92 54.99 57.28 54.92 56.68 55.07L58.4 62.34L61.86 65.26L48 68.55L49.78 64.39L44.23 40.89L40.77 37.97L53.73 34.9C55.6 34.45 57.4 34.26 59.13 34.32C60.85 34.39 62.41 34.7 63.8 35.26C65.19 35.82 66.36 36.63 67.31 37.69C68.27 38.74 68.93 40.01 69.28 41.51ZM60.43 43.86C60.13 42.62 59.69 41.65 59.11 40.94C58.52 40.24 57.88 39.73 57.17 39.41C56.45 39.09 55.72 38.95 54.97 38.97C54.23 39 53.56 39.13 52.98 39.37L55.63 50.57C56.44 50.58 57.18 50.44 57.87 50.16C58.55 49.89 59.14 49.45 59.61 48.89C60.08 48.32 60.4 47.62 60.57 46.79C60.74 45.96 60.69 44.98 60.43 43.86L60.43 43.86Z" fill="#FFFFFF" fill-opacity="1.000000" fill-rule="nonzero"/>
	<path id="Vector" d="M94.03 47.03C94.29 48.75 94.16 50.27 93.64 51.6C93.12 52.92 92.36 54.06 91.35 55.04C90.34 56 89.18 56.78 87.85 57.37C86.52 57.96 85.19 58.35 83.87 58.56C82.77 58.73 81.75 58.83 80.79 58.86C79.92 58.89 79.05 58.9 78.17 58.89C77.38 58.88 76.64 58.87 75.97 58.86C75.29 58.85 74.69 58.88 74.18 58.96C73.95 59 73.71 59.12 73.46 59.32C73.22 59.53 73.01 59.75 72.85 60.01L70.66 45.77C71.12 47.04 71.78 48.22 72.61 49.28C73.45 50.36 74.38 51.28 75.39 52.06C76.4 52.83 77.43 53.42 78.48 53.82C79.53 54.22 80.53 54.35 81.46 54.2C82.05 54.11 82.64 53.98 83.21 53.81C83.76 53.64 84.25 53.42 84.67 53.16C85.09 52.9 85.41 52.56 85.63 52.17C85.85 51.77 85.92 51.29 85.83 50.74C85.7 49.87 85.35 49.1 84.78 48.44C84.22 47.78 83.5 47.22 82.62 46.76C81.74 46.3 80.73 45.91 79.59 45.59C78.39 45.25 77.17 44.98 75.94 44.76C74.01 44.4 72.3 43.58 70.83 42.31C69.37 41.05 68.45 39.2 68.07 36.77C67.86 35.41 67.98 34.13 68.42 32.93C68.86 31.74 69.56 30.65 70.5 29.68C71.44 28.71 72.59 27.89 73.96 27.23C75.32 26.57 76.83 26.11 78.47 25.86C80.18 25.6 81.77 25.54 83.22 25.67C84.68 25.81 85.91 25.81 86.91 25.65C87.14 25.61 87.37 25.5 87.62 25.29C87.87 25.09 88.06 24.86 88.19 24.61L89.99 36.27C89.57 35.31 88.97 34.43 88.17 33.64C87.37 32.86 86.48 32.19 85.51 31.64C84.56 31.11 83.54 30.71 82.48 30.47C81.44 30.23 80.46 30.18 79.56 30.32C78.4 30.5 77.41 30.89 76.59 31.48C75.77 32.07 75.43 32.77 75.55 33.58C75.65 34.19 76.05 34.69 76.77 35.08C77.49 35.47 78.38 35.82 79.44 36.14C80.49 36.45 81.66 36.77 82.93 37.09C84.19 37.4 85.42 37.8 86.63 38.28C88.71 39.12 90.37 40.22 91.62 41.57C92.87 42.91 93.67 44.73 94.03 47.03ZM33.73 52.33C35.14 55.82 35.02 58.92 33.36 61.63C31.71 64.33 28.69 66.58 24.3 68.35L11.73 73.45L12.87 69.06L3.85 46.68L0 44.31L11.79 39.53C12.94 39.07 14.21 38.62 15.59 38.21C16.97 37.79 18.3 37.54 19.59 37.46C20.88 37.38 22.03 37.53 23.07 37.91C24.1 38.29 24.84 39.04 25.3 40.16C25.53 40.72 25.62 41.32 25.58 41.92C25.54 42.52 25.41 43.11 25.17 43.66C24.93 44.23 24.6 44.75 24.19 45.22C23.78 45.7 23.3 46.13 22.77 46.48L22.85 46.67C23.42 46.51 24.2 46.45 25.21 46.51C26.22 46.56 27.26 46.79 28.34 47.2C29.42 47.61 30.45 48.23 31.44 49.05C32.41 49.86 33.18 50.96 33.73 52.33ZM17.03 44.4C16.86 43.97 16.59 43.65 16.24 43.42C15.88 43.19 15.48 43.05 15.03 42.98C14.58 42.92 14.11 42.95 13.62 43.08C13.13 43.21 12.65 43.4 12.19 43.66L14.08 48.35C15.2 47.97 16.05 47.42 16.64 46.71C17.23 45.99 17.36 45.22 17.03 44.4ZM25.33 56.1C24.99 55.27 24.52 54.5 23.92 53.84C23.32 53.16 22.59 52.61 21.77 52.24C20.95 51.86 20.03 51.69 19.02 51.71C18.01 51.73 16.93 52.03 15.79 52.59L21.04 65.64C22.25 65.15 23.23 64.54 23.97 63.81C24.72 63.08 25.25 62.29 25.55 61.44C25.86 60.6 25.99 59.7 25.94 58.8C25.89 57.87 25.68 56.96 25.33 56.1Z" fill="#FFFFFF" fill-opacity="1.000000" fill-rule="nonzero"/>
	<path id="Vector" d="M112.67 31.12L108 32.39L113.8 53.84L117.36 56.7L103.52 60.46L105.2 56.18L99.4 34.73L94.72 36L92.1 41.5L89.46 31.72L115.06 24.76L117.71 34.54L112.67 31.12ZM21.68 11.74L39 17.58C40.73 18.16 42.12 18.96 43.15 19.99C44.19 21.01 44.94 22.12 45.4 23.31C45.86 24.51 46.09 25.72 46.08 26.94C46.07 28.16 45.9 29.25 45.58 30.22L44.71 32.83C44.19 34.38 43.52 35.76 42.68 36.97C41.85 38.17 40.85 39.14 39.68 39.87C38.5 40.6 37.16 41.02 35.63 41.15C34.11 41.27 32.42 41.02 30.56 40.4L14 34.81L9.71 36.22L14.35 22.28L16.93 26L33.88 31.71C34.99 32.09 35.95 32.29 36.75 32.32C37.55 32.35 38.23 32.23 38.78 31.97C39.32 31.71 39.79 31.31 40.12 30.81C40.46 30.31 40.75 29.7 40.99 28.98C41.2 28.33 41.32 27.7 41.33 27.1C41.34 26.51 41.2 25.93 40.92 25.41C40.63 24.88 40.17 24.39 39.55 23.93C38.92 23.48 38.1 23.08 37.08 22.74L19.94 16.96L15.65 18.36L19.09 8.06L21.68 11.74L21.68 11.74ZM128.01 100.01C128.4 100.98 128.4 101.97 128 102.99C127.59 104 126.9 104.71 125.9 105.11C125.42 105.31 124.91 105.4 124.39 105.37C123.89 105.36 123.4 105.24 122.94 105.04C122.48 104.83 122.06 104.54 121.7 104.19C121.32 103.83 121.03 103.4 120.84 102.92C120.65 102.44 120.56 101.92 120.58 101.41C120.6 100.9 120.7 100.4 120.88 99.93C121.07 99.46 121.34 99.03 121.69 98.67C122.05 98.3 122.48 98 122.96 97.81C123.44 97.62 123.95 97.53 124.46 97.55C124.97 97.57 125.47 97.68 125.94 97.88C126.4 98.08 126.83 98.37 127.18 98.73C127.54 99.1 127.82 99.53 128.01 100.01L128.01 100.01Z" fill="#FFFFFF" fill-opacity="1.000000" fill-rule="nonzero"/>
	<path id="Vector" d="M74.07 22.64L71.83 18.33L52.21 28.58L50.2 32.68L43.57 19.9L48.09 20.64L67.71 10.38L65.47 6.07L59.56 4.67L68.5 0L80.77 23.64L71.83 28.31L74.07 22.64ZM120.7 48.96C120.69 50.66 120.38 52.14 119.76 53.38C119.13 54.62 118.48 55.59 117.79 56.27C117.63 56.44 117.43 56.52 117.2 56.52C117.04 56.52 116.91 56.46 116.81 56.34C116.71 56.23 116.7 56.06 116.76 55.83C116.86 55.56 116.97 55.25 117.08 54.87C117.2 54.49 117.25 54.16 117.25 53.86C117.26 53.54 117.19 53.26 117.06 53.03C116.93 52.8 116.64 52.71 116.18 52.78C115.17 52.9 114.34 52.58 113.69 51.81C113.03 51.04 112.71 50.08 112.71 48.93C112.72 47.88 113.1 46.97 113.85 46.2C114.6 45.44 115.54 45.05 116.69 45.06C117.28 45.06 117.82 45.17 118.3 45.38C118.78 45.59 119.21 45.88 119.58 46.25C119.93 46.6 120.21 47.02 120.41 47.48C120.6 47.94 120.7 48.43 120.7 48.96ZM122.27 82.15C123.05 84.08 122.15 86.2 120.19 87C118.25 87.78 116.09 86.9 115.32 84.97C114.56 83.08 115.5 80.94 117.43 80.15C119.4 79.36 121.51 80.26 122.27 82.15L122.27 82.15ZM116.19 84.62C116.8 86.13 118.4 86.88 119.92 86.26C121.41 85.66 122.02 84.02 121.42 82.52C120.81 81.01 119.22 80.23 117.71 80.84C116.2 81.45 115.58 83.12 116.19 84.62ZM118.99 85.55L118.2 85.87L116.83 82.47C117.12 82.28 117.54 82.06 118.09 81.84C118.73 81.58 119.06 81.57 119.37 81.61C119.61 81.68 119.87 81.89 120 82.22C120.15 82.6 119.98 83 119.62 83.3L119.64 83.34C120.01 83.33 120.3 83.5 120.59 83.92C120.9 84.39 121.05 84.58 121.18 84.67L120.34 85.01C120.18 84.93 119.99 84.64 119.73 84.29C119.52 83.94 119.25 83.86 118.82 84.04L118.45 84.18L118.99 85.55L118.99 85.55ZM118.23 83.62L118.6 83.47C119.04 83.29 119.33 83 119.19 82.65C119.06 82.34 118.75 82.22 118.26 82.42C118.11 82.48 117.97 82.55 117.84 82.64L118.23 83.62Z" fill="#FFFFFF" fill-opacity="1.000000" fill-rule="nonzero"/>
</svg>
